<svg xmlns="http://www.w3.org/2000/svg" viewBox="0 0 608.86 602"><defs><style>.cls-1{fill:none;stroke:#0e43f5;stroke-miterlimit:10;stroke-width:2px;}</style></defs><g id="レイヤー_2" data-name="レイヤー 2"><g id="レイヤー_1-2" data-name="レイヤー 1"><path class="cls-1" d="M45.79,556.82Q1,512.63,1,434.36V167.64Q1,88.56,46,44.78T176.52,1q85.95,0,130.73,43.58T352,167.64V434.36q0,79.08-45,122.86T176.52,601Q90.57,601,45.79,556.82Zm180-85.14q15.74-22.8,15.73-65.57V195.89q0-42.76-15.73-65.57t-49.23-22.8q-33.5,0-49.23,22.8t-15.73,65.57V406.11q0,42.78,15.73,65.57t49.23,22.8Q210,494.48,225.75,471.68Z"/><path class="cls-1" d="M607.86,595H497.3V138.19l-71.42,27V47.81L513.44,8.26h94.42Z"/></g></g></svg>