<svg xmlns="http://www.w3.org/2000/svg" viewBox="0 0 296.96 15"><defs><style>.cls-1{fill:#0e43f5;}</style></defs><g id="レイヤー_2" data-name="レイヤー 2"><g id="レイヤー_1-2" data-name="レイヤー 1"><path class="cls-1" d="M136.69,0c0,6.18,0,8.79,0,15h-6.28V0Z"/><rect class="cls-1" x="40.85" width="6.28" height="15"/><rect class="cls-1" x="109.99" width="6.27" height="15"/><path class="cls-1" d="M289.11,0V15H285c0-6.18,0-8.82,0-15Z"/><path class="cls-1" d="M251.41,0V15h-4.15c0-6.18.05-8.82.06-15Z"/><path class="cls-1" d="M234.11,0V15H230c0-6.18.05-8.82.06-15Z"/><path class="cls-1" d="M183.83,0V15h-4.12c0-6.18,0-8.82,0-15Z"/><path class="cls-1" d="M33,0V15H28.86c0-6.18,0-8.82.06-15Z"/><path class="cls-1" d="M264,0V15h-4.13c0-6.18,0-8.82,0-15Z"/><path class="cls-1" d="M177.55,0V15h-4.13c0-6.18,0-8.82.05-15Z"/><path class="cls-1" d="M216.83,0V15H212.7c0-6.18,0-8.82.06-15Z"/><path class="cls-1" d="M199.54,0V15h-4.13c0-6.18.05-8.82.06-15Z"/><rect class="cls-1" width="3.15" height="15"/><rect class="cls-1" x="201.12" width="3.15" height="15"/><rect class="cls-1" x="218.4" width="3.15" height="15"/><rect class="cls-1" x="235.68" width="3.15" height="15"/><rect class="cls-1" x="254.54" width="3.15" height="15"/><rect class="cls-1" x="293.81" width="3.15" height="15"/><rect class="cls-1" x="51.85" width="3.15" height="15"/><rect class="cls-1" x="265.54" width="3.15" height="15"/><rect class="cls-1" x="276.53" width="3.15" height="15"/><rect class="cls-1" x="76.99" width="3.15" height="15"/><rect class="cls-1" x="98.98" width="3.16" height="15"/><rect class="cls-1" x="120.98" width="3.15" height="15"/><rect class="cls-1" x="125.7" width="3.13" height="15"/><rect class="cls-1" x="23.56" width="3.15" height="15"/><rect class="cls-1" x="146.12" width="3.15" height="15"/><rect class="cls-1" x="161.83" width="3.15" height="15"/><rect class="cls-1" x="185.41" width="3.15" height="15"/><rect class="cls-1" x="4.72" width="1.56" height="15"/><rect class="cls-1" x="9.43" width="1.57" height="15"/><rect class="cls-1" x="17.28" width="1.57" height="15"/><rect class="cls-1" x="34.57" width="1.57" height="15"/><rect class="cls-1" x="48.7" width="1.59" height="15"/><rect class="cls-1" x="58.13" width="1.57" height="15"/><rect class="cls-1" x="61.28" width="1.57" height="15"/><rect class="cls-1" x="207.4" width="1.57" height="15"/><rect class="cls-1" x="103.71" width="1.56" height="15"/><rect class="cls-1" x="138.26" width="1.57" height="15"/><rect class="cls-1" x="91.14" width="1.56" height="15"/><rect class="cls-1" x="86.42" width="1.57" height="15"/><rect class="cls-1" x="141.41" width="1.57" height="15"/><rect class="cls-1" x="241.96" width="1.57" height="15"/><rect class="cls-1" x="81.69" width="1.59" height="15"/><rect class="cls-1" x="155.55" width="1.57" height="15"/><rect class="cls-1" x="190.11" width="1.57" height="15"/><rect class="cls-1" x="117.85" width="1.57" height="15"/><rect class="cls-1" x="273.4" width="1.57" height="15"/><rect class="cls-1" x="166.55" width="1.57" height="15"/><rect class="cls-1" x="69.13" width="1.57" height="15"/><rect class="cls-1" x="290.68" width="1.56" height="15"/><rect class="cls-1" x="224.68" width="1.57" height="15"/></g></g></svg>