<svg xmlns="http://www.w3.org/2000/svg" viewBox="0 0 257.07 116.83"><defs><style>.cls-1{font-size:21px;fill:#0e43f5;font-family:MidashiGoPr6N-MB31-90ms-RKSJ-H, A-OTF Midashi Go MB31 Pr6N;}.cls-2{letter-spacing:0em;}.cls-3{letter-spacing:0.02em;}.cls-4{letter-spacing:-0.01em;}.cls-5{letter-spacing:-0.01em;}.cls-6{letter-spacing:0em;}.cls-7{letter-spacing:0em;}.cls-8{letter-spacing:0em;}.cls-9{letter-spacing:-0.01em;}.cls-10{letter-spacing:0.01em;}.cls-11{letter-spacing:0em;}.cls-12{letter-spacing:0em;}.cls-13{letter-spacing:-0.01em;}.cls-14{letter-spacing:-0.01em;}.cls-15{letter-spacing:0em;}.cls-16{letter-spacing:-0.01em;}.cls-17{letter-spacing:0.01em;}.cls-18{font-size:36px;}.cls-19{letter-spacing:-0.01em;}.cls-20{letter-spacing:-0.01em;}.cls-21{letter-spacing:-0.01em;}.cls-22{letter-spacing:0em;}.cls-23{letter-spacing:-0.01em;}.cls-24{letter-spacing:0.01em;}.cls-25{letter-spacing:-0.09em;}.cls-26{letter-spacing:-0.13em;}.cls-27{letter-spacing:-0.14em;}</style></defs><g id="レイヤー_2" data-name="レイヤー 2"><g id="レイヤー_1-2" data-name="レイヤー 1"><text class="cls-1" transform="matrix(1, 0, -0.09, 1, 37.72, 18.41)"><tspan class="cls-2">G</tspan><tspan class="cls-3" x="17.15" y="0">R</tspan><tspan class="cls-4" x="31.95" y="0">A</tspan><tspan class="cls-5" x="47.67" y="0">P</tspan><tspan class="cls-6" x="61.79" y="0">H</tspan><tspan class="cls-7" x="77.78" y="0">I</tspan><tspan x="83.27" y="0">C </tspan><tspan class="cls-8" x="106.2" y="0">D</tspan><tspan class="cls-9" x="122.1" y="0">E</tspan><tspan class="cls-10" x="136.3" y="0">S</tspan><tspan class="cls-11" x="150.86" y="0">I</tspan><tspan class="cls-12" x="156.32" y="0">G</tspan><tspan x="173.41" y="0">N</tspan><tspan class="cls-13"><tspan x="24.91" y="36.75">W</tspan><tspan class="cls-14" x="45.7" y="36.75">E</tspan><tspan class="cls-15" x="59.91" y="36.75">B </tspan><tspan class="cls-8" x="81.29" y="36.75">D</tspan><tspan class="cls-16" x="97.19" y="36.75">E</tspan><tspan class="cls-17" x="111.39" y="36.75">S</tspan><tspan class="cls-11" x="125.95" y="36.75">I</tspan><tspan class="cls-12" x="131.41" y="36.75">G</tspan><tspan class="cls-15" x="148.5" y="36.75">N</tspan></tspan><tspan class="cls-18"><tspan class="cls-19" x="-29.22" y="86.7">C</tspan><tspan class="cls-20" x="-2.29" y="86.7">E</tspan><tspan class="cls-21" x="21.95" y="86.7">L</tspan><tspan class="cls-22" x="44.4" y="86.7">I</tspan><tspan class="cls-23" x="53.59" y="86.7">N</tspan><tspan class="cls-24" x="80.64" y="86.7">E</tspan><tspan class="cls-25" x="105.52" y="86.7">/</tspan><tspan class="cls-26" x="120.4" y="86.7">せ</tspan><tspan class="cls-27" x="151.68" y="86.7">り</tspan><tspan x="182.57" y="86.7">ね</tspan></tspan></text></g></g></svg>