<svg xmlns="http://www.w3.org/2000/svg" viewBox="0 0 13.42 138.82"><defs><style>.cls-1{fill:#0e43f5;}</style></defs><g id="レイヤー_2" data-name="レイヤー 2"><g id="_2" data-name="2"><path class="cls-1" d="M1.26,136.05l10.17,1.24v-1.17l1.26.15v2.55L0,137.25V134.7l1.26.17Z"/><path class="cls-1" d="M8,128.4v4l2.25,1.31v1.56L.32,129.4l9.89-3.21v1.51Zm-1.35.41-3.16,1,3.16,1.82Z"/><path class="cls-1" d="M.87,122.87a3.23,3.23,0,0,1,.73-2.43,2.12,2.12,0,0,1,1.58-.59,2.61,2.61,0,0,1,1.22.26,2,2,0,0,1,.81.83,2.2,2.2,0,0,1,.73-1,2,2,0,0,1,1.29-.41,2.88,2.88,0,0,1,2,.74,4,4,0,0,1,.94,3v2.19L.87,124.29Zm4,.48v-.43a1.87,1.87,0,0,0-.38-1.27,1.57,1.57,0,0,0-1.13-.46,1.16,1.16,0,0,0-.82.31,1.66,1.66,0,0,0-.35,1.13v.4Zm4,.49V123a2.37,2.37,0,0,0-.48-1.64,1.51,1.51,0,0,0-1.08-.43,1.11,1.11,0,0,0-.91.42,2.05,2.05,0,0,0-.33,1.29v.89Z"/><path class="cls-1" d="M1.92,109.77a4.31,4.31,0,0,1,3.16-1.21A5.35,5.35,0,0,1,9,110a5.08,5.08,0,0,1,1.44,3.85,4.19,4.19,0,0,1-1.2,3.24A4.55,4.55,0,0,1,6,118.37a5.47,5.47,0,0,1-3.84-1.53A5.52,5.52,0,0,1,.7,112.92,4.24,4.24,0,0,1,1.92,109.77Zm6.15,1.36A4.13,4.13,0,0,0,5.17,110a3.09,3.09,0,0,0-2.2.84,3.28,3.28,0,0,0-1,2.37,3.57,3.57,0,0,0,1,2.59A4,4,0,0,0,5.91,117a3.17,3.17,0,0,0,2.27-.87,2.86,2.86,0,0,0,.9-2.21A3.69,3.69,0,0,0,8.07,111.13Z"/><path class="cls-1" d="M.87,104.74l5.25.65a9.11,9.11,0,0,0,1.07.1A1.82,1.82,0,0,0,8.57,105a1.76,1.76,0,0,0,.51-1.32,2.16,2.16,0,0,0-.61-1.56,3,3,0,0,0-2-.75l-5.63-.69V99.25l6,.75a4.15,4.15,0,0,1,2.72,1.31,3.85,3.85,0,0,1,.79,2.48,3,3,0,0,1-1.09,2.54,3,3,0,0,1-1.92.61,11.82,11.82,0,0,1-1.55-.15l-5-.62Z"/><path class="cls-1" d="M2.21,94.59l8,1V97l-8-1v2.15L.87,98V92.28l1.34.17Z"/><path class="cls-1" d="M.87,86.31,6.12,87a9.11,9.11,0,0,0,1.07.1,1.82,1.82,0,0,0,1.38-.49,1.75,1.75,0,0,0,.51-1.32,2.15,2.15,0,0,0-.61-1.55,2.94,2.94,0,0,0-2-.76L.87,82.24V80.82l6,.74A4.2,4.2,0,0,1,9.6,82.87a3.87,3.87,0,0,1,.79,2.48A3,3,0,0,1,9.3,87.89a3,3,0,0,1-1.92.62,12.83,12.83,0,0,1-1.55-.16l-5-.61Z"/><path class="cls-1" d="M2.94,74.8a1.28,1.28,0,0,0-.66.42,1.65,1.65,0,0,0-.26.92,1.54,1.54,0,0,0,.36,1.07,1.17,1.17,0,0,0,.84.39.94.94,0,0,0,.72-.34,3.08,3.08,0,0,0,.49-.91l.33-.75a3,3,0,0,1,.86-1.18,2.22,2.22,0,0,1,1.52-.49,3.27,3.27,0,0,1,2.32.85,3.28,3.28,0,0,1,.93,2.44,2.54,2.54,0,0,1-.65,1.88A3.14,3.14,0,0,1,7.63,80l-.3-1.45a2.16,2.16,0,0,0,1.26-.32A1.39,1.39,0,0,0,9.08,77a1.65,1.65,0,0,0-.39-1.11,1.94,1.94,0,0,0-1.38-.53,1.19,1.19,0,0,0-.88.37,2.89,2.89,0,0,0-.59,1l-.32.71a3.37,3.37,0,0,1-.74,1.11A2.14,2.14,0,0,1,3.4,79a2.67,2.67,0,0,1-1.8-.74,3,3,0,0,1-.9-2.23,2.87,2.87,0,0,1,.43-1.61,2.27,2.27,0,0,1,1.14-.89Z"/><path class="cls-1" d="M2.21,63.11v3.72l2.37.28V63.5l1.35.17v3.61l2.94.37V63.92l1.34.17v5.15L.87,68.09V62.94Z"/><path class="cls-1" d="M.87,59.09a3.3,3.3,0,0,1,.73-2.25,2.4,2.4,0,0,1,1.82-.69,2.85,2.85,0,0,1,2.1.8,4,4,0,0,1,.9,2.93v.47l3.79.46v1.43L.87,61.09ZM5.1,60.18v-.53A2.53,2.53,0,0,0,4.67,58a1.53,1.53,0,0,0-1.17-.48,1.22,1.22,0,0,0-1,.44,2.07,2.07,0,0,0-.32,1.27v.6Z"/><path class="cls-1" d="M6.51,52.22V48.86L7.94,49v3.36Z"/><path class="cls-1" d="M.87,41.65l8,1V39.88l1.34.17v4.18L.87,43.08Z"/><path class="cls-1" d="M5,33.35a2.87,2.87,0,0,1,2-.8,3.34,3.34,0,0,1,2.49,1A3.19,3.19,0,0,1,10.39,36a2.7,2.7,0,0,1-.79,2.1,2.84,2.84,0,0,1-2.06.82,3.32,3.32,0,0,1-3.38-3.46A2.8,2.8,0,0,1,5,33.35ZM8.6,34.51A2.22,2.22,0,0,0,7.07,34a1.76,1.76,0,0,0-1.23.46,1.46,1.46,0,0,0-.45,1.12,1.88,1.88,0,0,0,.49,1.33,2.1,2.1,0,0,0,1.54.65,1.88,1.88,0,0,0,1.22-.44,1.62,1.62,0,0,0,.52-1.26A1.68,1.68,0,0,0,8.6,34.51Z"/><path class="cls-1" d="M0,28.85l10.21,1.26v1.38L0,30.23Z"/><path class="cls-1" d="M1.29,27.27A1,1,0,0,1,1,26.56.75.75,0,0,1,1.21,26a.71.71,0,0,1,.53-.23,1.12,1.12,0,0,1,.71.28,1.05,1.05,0,0,1,.31.75.73.73,0,0,1-.21.54.71.71,0,0,1-.53.23A1,1,0,0,1,1.29,27.27Zm3-1,5.9.73v1.37l-5.9-.73Z"/><path class="cls-1" d="M5,23.24a2.26,2.26,0,0,1-.59-.69,2.59,2.59,0,0,1-.25-1.19,2.43,2.43,0,0,1,.67-1.75,2.78,2.78,0,0,1,2-.74,3.82,3.82,0,0,1,2.65,1,2.82,2.82,0,0,1,.89,2.21,2.12,2.12,0,0,1-.28,1.16,2,2,0,0,1-.51.6l.61.07v1.38L0,24V22.62ZM5.93,23a2.42,2.42,0,0,0,1.61.6,1.75,1.75,0,0,0,1.23-.48,1.37,1.37,0,0,0,.39-1,1.67,1.67,0,0,0-.53-1.24,2.31,2.31,0,0,0-1.58-.62,1.75,1.75,0,0,0-1.26.46,1.33,1.33,0,0,0-.4,1A1.65,1.65,0,0,0,5.93,23Z"/><path class="cls-1" d="M5,12.19a2.87,2.87,0,0,1,2-.8,3.36,3.36,0,0,1,2.49,1,3.19,3.19,0,0,1,.91,2.42,2.7,2.7,0,0,1-.79,2.1,2.84,2.84,0,0,1-2.06.81,3.3,3.3,0,0,1-3.38-3.46A2.82,2.82,0,0,1,5,12.19ZM8.6,13.35a2.26,2.26,0,0,0-1.53-.56,1.73,1.73,0,0,0-1.23.47,1.46,1.46,0,0,0-.45,1.12,1.9,1.9,0,0,0,.49,1.33,2.13,2.13,0,0,0,1.54.64,1.87,1.87,0,0,0,1.22-.43,1.62,1.62,0,0,0,.52-1.26A1.7,1.7,0,0,0,8.6,13.35Z"/><path class="cls-1" d="M9.12,8.36l-4.81,2V8.76L7.63,7.43l-3.32-2V3.81l9.11,5.81v1.54Z"/><path class="cls-1" d="M11.43,2.79,1.26,1.54V2.72L0,2.55V0L12.69,1.57V4.12L11.43,4Z"/></g></g></svg>