<svg xmlns="http://www.w3.org/2000/svg" viewBox="0 0 61.3 11.16"><defs><style>.cls-1{fill:#0e43f5;}</style></defs><g id="レイヤー_2" data-name="レイヤー 2"><g id="_2" data-name="2"><path class="cls-1" d="M6.7,2H2.86L2.65,4.42H6.33L6.17,6.21H2.49L2.24,9.12H6.08l-.16,1.8H0L.93.24H6.86Z"/><path class="cls-1" d="M12,.24a3.56,3.56,0,0,1,2.75.82,3.11,3.11,0,0,1,.86,2.57A3.7,3.7,0,0,1,14.49,6,4,4,0,0,1,11.71,7H10.36l-.34,4H7.94L8.87.24ZM10.52,5.17h.85a2.24,2.24,0,0,0,1.39-.34,1.74,1.74,0,0,0,.68-1.24A1.35,1.35,0,0,0,13,2.37,2.35,2.35,0,0,0,11.51,2h-.72Z"/><path class="cls-1" d="M20.19,6.34h4.16L24.2,8.13H20Z"/><path class="cls-1" d="M29.36,5.57C29.68,1.9,31.85,0,34,0s4,1.9,3.64,5.59S35.13,11.16,33,11.16,29,9.25,29.36,5.57Zm2.08,0c-.24,2.79.81,3.79,1.72,3.79s2.14-1,2.38-3.79-.82-3.78-1.72-3.78S31.69,2.8,31.44,5.57Z"/><path class="cls-1" d="M38.45,5.57C38.77,1.9,40.94,0,43.07,0s4,1.9,3.64,5.59-2.49,5.57-4.62,5.57S38.13,9.25,38.45,5.57Zm2.08,0c-.24,2.79.81,3.79,1.72,3.79s2.13-1,2.38-3.79-.82-3.78-1.72-3.78S40.77,2.8,40.53,5.57Z"/><path class="cls-1" d="M47.54,5.57C47.86,1.9,50,0,52.16,0s4,1.9,3.64,5.59-2.49,5.57-4.62,5.57S47.22,9.25,47.54,5.57Zm2.08,0c-.24,2.79.8,3.79,1.72,3.79s2.13-1,2.38-3.79S52.89,1.79,52,1.79,49.86,2.8,49.62,5.57Z"/><path class="cls-1" d="M59.06,2H57.53L57.69.24H61.3l-.93,10.68H58.29Z"/></g></g></svg>