<svg id="レイヤー_1" data-name="レイヤー 1" xmlns="http://www.w3.org/2000/svg" viewBox="0 0 1000 1000"><defs><style>.cls-1{fill:#0e43f5;}</style></defs><path class="cls-1" d="M900,118.41H776.92L662.79,170V294.39L587.73,104H420.32l-6.11,15.14q-37.89-10.23-85.41-10.23-111.53,0-170.15,57.07T100,326.17V673.83q0,80.79,36.59,133.71L100.93,896h190l2.62-6.46q16.92,1.54,35.28,1.55Q440.29,891.06,499,834q36.06-35.1,49.95-87.62H650.66L710,896H900l-5-12.8h5ZM537.59,673.83c0,26.69-3.17,51-9.45,72.54q-1.82,6.25-4,12.17A162.21,162.21,0,0,1,485,819.66c-17.29,16.82-38.92,29.67-64.28,38.17-26.17,8.78-57.09,13.23-91.92,13.23q-14.16,0-27.42-1c-23.95-1.76-45.66-5.9-64.8-12.37-25.37-8.57-47-21.52-64.15-38.48a161,161,0,0,1-26.61-34.56,172.18,172.18,0,0,1-12.44-26.78C124.5,733.62,120,705.34,120,673.83V326.17c0-31.85,4.52-60.35,13.44-84.71a162.21,162.21,0,0,1,39.15-61.12c17.29-16.82,38.92-29.66,64.27-38.17C263,133.39,294,128.94,328.8,128.94c28.79,0,54.92,3,77.87,8.93q7.44,1.92,14.42,4.25c25.39,8.46,47,21.23,64.17,38s30.3,37.26,38.94,61c8.89,24.42,13.39,53,13.39,85.08Zm20-67.57v-118l43.2,118Zm198.29-75.79L672.61,319.29l83.27-31.52ZM880,863.17H775.88V258.81L748.8,269.07l-66,25V182.87l98.44-44.46H880Z"/><path class="cls-1" d="M409.42,266.15a84,84,0,0,0-41.54-32.09q-17.34-6.26-39.08-6.26c-35.93,0-63.06,12.9-80.63,38.35-16,23.13-24,55.71-24,96.83V637c0,41.13,8.09,73.71,24,96.82,17.56,25.46,44.69,38.36,80.63,38.36q6.4,0,12.43-.55C365,769.51,384.3,761,399,746.37a87.85,87.85,0,0,0,10.42-12.52c16-23.12,24.06-55.7,24.06-96.83V363C433.48,321.86,425.39,289.28,409.42,266.15ZM244.12,540.92V363q0-55.74,20.51-85.47T328.8,247.8q17.68,0,31.57,4.88Z"/></svg>