<svg xmlns="http://www.w3.org/2000/svg" viewBox="0 0 1437.32 30.63"><defs><style>.cls-1{fill:#0e43f5;}</style></defs><g id="レイヤー_2" data-name="レイヤー 2"><g id="レイヤー_1-2" data-name="レイヤー 1"><path class="cls-1" d="M7.56,12.82H19.41L20.75,2h5.46L22.77,30H17.31l1.51-12.48H7L5.46,30H0L3.44,2H8.91Z"/><path class="cls-1" d="M46.45,2,43,30H37.55L41,2Z"/><path class="cls-1" d="M68.8,2c1.51,0,5.21.13,7.52,2.27a7.75,7.75,0,0,1,2.26,6,9.48,9.48,0,0,1-2.64,7c-2.23,2.1-5.38,2.43-7.69,2.43H64.51L63.25,30H57.79L61.24,2ZM65.1,14.92h2.31a6.17,6.17,0,0,0,4.2-1.18A4.21,4.21,0,0,0,73,10.42a3.28,3.28,0,0,0-1.52-3A7.27,7.27,0,0,0,68,6.69H66.11Z"/><path class="cls-1" d="M96.22,12.82h11.85L109.41,2h5.46l-3.44,28H106l1.51-12.48H95.63L94.12,30H88.66L92.11,2h5.46Z"/><path class="cls-1" d="M153.05,5a12.67,12.67,0,0,1,3.7,9.33,17.17,17.17,0,0,1-4.5,11.76,15.72,15.72,0,0,1-11.67,4.58c-5.51,0-8.66-2.23-10.3-3.91a13.35,13.35,0,0,1-3.69-9.28,16.27,16.27,0,0,1,4.83-11.68,17.53,17.53,0,0,1,11.93-4.41A14,14,0,0,1,153.05,5ZM147.76,22.9a11.71,11.71,0,0,0,3.32-8.19,8.43,8.43,0,0,0-2.23-5.92,8.67,8.67,0,0,0-6.38-2.44,10,10,0,0,0-7,2.69,10.9,10.9,0,0,0-3.23,8,8.56,8.56,0,0,0,2.22,6.09,8.69,8.69,0,0,0,6.39,2.56A9.81,9.81,0,0,0,147.76,22.9Z"/><path class="cls-1" d="M179.47,2c1.51,0,5.21.13,7.52,2.27a7.75,7.75,0,0,1,2.26,6,9.48,9.48,0,0,1-2.64,7c-2.23,2.1-5.38,2.43-7.69,2.43h-3.74L173.92,30h-5.46l3.45-28Zm-3.7,12.94h2.31a6.17,6.17,0,0,0,4.2-1.18,4.21,4.21,0,0,0,1.35-3.32,3.28,3.28,0,0,0-1.52-3,7.27,7.27,0,0,0-3.4-.75h-1.93Z"/><path class="cls-1" d="M1145.59,6.69h-9.41l-.76,6.26h8.82l-.59,4.7h-8.82L1133.32,30h-5.46l3.44-28h14.87Z"/><path class="cls-1" d="M1164.65,2l-1.89,15.5c-.08.84-.29,2.56-.29,3.11a5.27,5.27,0,0,0,1.43,3.78,5.86,5.86,0,0,0,3.82,1.3,6.71,6.71,0,0,0,4-1.17c2-1.52,2.27-3.95,2.6-6.68l2-15.84h5.46l-2,16.43c-.42,3.27-.84,6.76-3.32,9.28-2.64,2.69-6.3,2.94-8.69,2.94-2.61,0-6-.42-8.32-2.81a8.77,8.77,0,0,1-2.31-6.47c0-1.14.25-3.83.38-4.75L1159.19,2Z"/><path class="cls-1" d="M1204.72,6.69,1201.86,30h-5.46l2.86-23.31H1193l.59-4.71h18.06L1211,6.69Z"/><path class="cls-1" d="M1228.83,2l-1.89,15.5c-.09.84-.3,2.56-.3,3.11a5.27,5.27,0,0,0,1.43,3.78,5.88,5.88,0,0,0,3.82,1.3,6.69,6.69,0,0,0,3.95-1.17c2-1.52,2.27-3.95,2.61-6.68l2-15.84h5.46l-2,16.43c-.42,3.27-.84,6.76-3.32,9.28-2.65,2.69-6.3,2.94-8.7,2.94-2.6,0-6-.42-8.32-2.81a8.81,8.81,0,0,1-2.31-6.47c0-1.14.26-3.83.38-4.75L1223.37,2Z"/><path class="cls-1" d="M1268.77,2c2.14,0,4.91.3,7,2.44a7.44,7.44,0,0,1,2,5.37,8.33,8.33,0,0,1-2.31,6.05,10.17,10.17,0,0,1-5.17,2.44L1277.38,30h-6.55l-6.09-11.26h-.68L1262.68,30h-5.46l3.44-28Zm-4.24,12.9h1.93a6.49,6.49,0,0,0,4.37-1.47,4.42,4.42,0,0,0,1.22-3.2,3.46,3.46,0,0,0-1.14-2.73,5.37,5.37,0,0,0-3.61-1.05h-1.72Z"/><path class="cls-1" d="M1308.21,6.69h-10.08l-.76,6.26H1307l-.59,4.7h-9.66l-.92,7.64h10.08l-.59,4.71h-15.54l3.44-28h15.55Z"/><path class="cls-1" d="M1329.42,2c2.35,0,4.91.21,6.8,2.06A6.24,6.24,0,0,1,1338,8.83a6.56,6.56,0,0,1-1.18,4.07,5.21,5.21,0,0,1-2.73,2.14,7.94,7.94,0,0,1,3.32,2.06,5.84,5.84,0,0,1,1.51,4.16,8.4,8.4,0,0,1-2.27,6c-1.72,1.81-4.11,2.69-8.4,2.69H1319l3.44-28Zm-4.37,23.57h2.35c2,0,3.82-.13,4.91-1.18a4,4,0,0,0,1.1-2.86,3.45,3.45,0,0,0-.93-2.47c-1-1-3.06-1.22-4.45-1.22h-2Zm1.47-11.93h1.17c1.6,0,3-.17,4.08-1.26a4,4,0,0,0,1-2.65,3,3,0,0,0-1.22-2.56,4.83,4.83,0,0,0-2.86-.72h-1.34Z"/><path class="cls-1" d="M1368.86,24.12h-11.31L1354.36,30h-6L1364,2h4.12l8.27,28h-5.75Zm-1.06-4.45-2.68-10.09-5.3,10.09Z"/><path class="cls-1" d="M1403.59,8.37a5.26,5.26,0,0,0-4.5-2.4,4.21,4.21,0,0,0-3,1A3.06,3.06,0,0,0,1395,9.29a2.42,2.42,0,0,0,1.18,2.14,15.81,15.81,0,0,0,2.64,1.26l1.89.8a10,10,0,0,1,3.49,2.35,6,6,0,0,1,1.72,4.5,10.68,10.68,0,0,1-3,7.64,10.72,10.72,0,0,1-7.65,2.65,9.92,9.92,0,0,1-5.75-1.6,12.91,12.91,0,0,1-3.57-3.69l4-3.41a9.63,9.63,0,0,0,2,2.57,5.14,5.14,0,0,0,3.53,1.17,4.7,4.7,0,0,0,3.66-1.38,4.13,4.13,0,0,0,1-2.9,3.06,3.06,0,0,0-1.26-2.56,10,10,0,0,0-2.86-1.39l-1.6-.67a10.78,10.78,0,0,1-3.4-2.06,6.05,6.05,0,0,1-1.72-4.62,8.19,8.19,0,0,1,2.39-6,10.22,10.22,0,0,1,7.61-2.69,9.59,9.59,0,0,1,7.56,3.28Z"/><path class="cls-1" d="M1434,8.37a5.26,5.26,0,0,0-4.5-2.4,4.21,4.21,0,0,0-3,1,3.06,3.06,0,0,0-1.09,2.35,2.41,2.41,0,0,0,1.17,2.14,16,16,0,0,0,2.65,1.26l1.89.8a10.17,10.17,0,0,1,3.49,2.35,6,6,0,0,1,1.72,4.5,10.72,10.72,0,0,1-3,7.64,10.72,10.72,0,0,1-7.65,2.65A9.9,9.9,0,0,1,1420,29a12.91,12.91,0,0,1-3.57-3.69l4-3.41a9.43,9.43,0,0,0,2,2.57,5.14,5.14,0,0,0,3.53,1.17,4.67,4.67,0,0,0,3.65-1.38,4.08,4.08,0,0,0,1-2.9,3,3,0,0,0-1.26-2.56,9.8,9.8,0,0,0-2.85-1.39l-1.6-.67a10.78,10.78,0,0,1-3.4-2.06,6.05,6.05,0,0,1-1.72-4.62,8.19,8.19,0,0,1,2.39-6,10.21,10.21,0,0,1,7.6-2.69,9.6,9.6,0,0,1,7.57,3.28Z"/><path class="cls-1" d="M620,2c2.14,0,7.23.21,10.71,3.57a12.42,12.42,0,0,1,3.49,9.16c0,6.55-2.82,9.79-4.12,11.05C626.94,28.87,622.7,30,616.82,30h-7.56L612.7,2Zm-4.7,23.31h1.84c3.7,0,6.77-.71,8.87-3a11.3,11.3,0,0,0,2.56-7.44,7.84,7.84,0,0,0-2.44-6c-2.27-2-5.42-2.18-6.89-2.18h-1.68Z"/><path class="cls-1" d="M654.74,2l-1.89,15.5c-.08.84-.29,2.56-.29,3.11A5.27,5.27,0,0,0,654,24.37a5.86,5.86,0,0,0,3.82,1.3,6.71,6.71,0,0,0,4-1.17c2-1.52,2.27-3.95,2.6-6.68l2-15.84h5.46l-2,16.43c-.42,3.27-.84,6.76-3.32,9.28-2.64,2.69-6.3,2.94-8.69,2.94-2.61,0-6-.42-8.32-2.81a8.77,8.77,0,0,1-2.31-6.47c0-1.14.25-3.83.38-4.75L649.28,2Z"/><path class="cls-1" d="M693.51,2c2.35,0,4.91.21,6.8,2.06a6.24,6.24,0,0,1,1.81,4.79,6.5,6.5,0,0,1-1.18,4.07A5.21,5.21,0,0,1,698.21,15a7.94,7.94,0,0,1,3.32,2.06A5.79,5.79,0,0,1,703,21.26a8.44,8.44,0,0,1-2.26,6c-1.73,1.81-4.12,2.69-8.41,2.69h-9.24l3.45-28Zm-4.37,23.57h2.35c2,0,3.82-.13,4.92-1.18a4,4,0,0,0,1.09-2.86,3.49,3.49,0,0,0-.92-2.47c-1.05-1-3.07-1.22-4.46-1.22h-2Zm1.47-11.93h1.18c1.59,0,3-.17,4.07-1.26a4,4,0,0,0,1-2.65,3,3,0,0,0-1.22-2.56,4.82,4.82,0,0,0-2.85-.72h-1.35Z"/><path class="cls-1" d="M731.94,8.37A5.24,5.24,0,0,0,727.45,6a4.22,4.22,0,0,0-3,1,3.06,3.06,0,0,0-1.09,2.35,2.42,2.42,0,0,0,1.18,2.14,15.81,15.81,0,0,0,2.64,1.26l1.89.8a10,10,0,0,1,3.49,2.35,6,6,0,0,1,1.72,4.5,10.68,10.68,0,0,1-3,7.64,10.7,10.7,0,0,1-7.64,2.65,9.93,9.93,0,0,1-5.76-1.6,12.91,12.91,0,0,1-3.57-3.69l4-3.41a9.63,9.63,0,0,0,2,2.57,5.16,5.16,0,0,0,3.53,1.17,4.69,4.69,0,0,0,3.66-1.38,4.08,4.08,0,0,0,1-2.9,3.06,3.06,0,0,0-1.26-2.56,10,10,0,0,0-2.86-1.39l-1.6-.67a10.78,10.78,0,0,1-3.4-2.06,6.05,6.05,0,0,1-1.72-4.62,8.19,8.19,0,0,1,2.39-6,10.22,10.22,0,0,1,7.61-2.69,9.59,9.59,0,0,1,7.56,3.28Z"/><path class="cls-1" d="M758,6.69,755.16,30H749.7l2.86-23.31h-6.3L746.85,2h18.06l-.59,4.71Z"/><path class="cls-1" d="M791.71,6.69H781.62L780.87,13h9.66l-.59,4.7h-9.66l-.93,7.64h10.09L788.85,30H773.31l3.44-28h15.54Z"/><path class="cls-1" d="M813.54,2c1.52,0,5.21.13,7.52,2.27a7.72,7.72,0,0,1,2.27,6,9.45,9.45,0,0,1-2.65,7c-2.22,2.1-5.37,2.43-7.68,2.43h-3.74L808,30h-5.46L806,2Zm-3.69,12.94h2.31a6.17,6.17,0,0,0,4.2-1.18,4.23,4.23,0,0,0,1.34-3.32,3.29,3.29,0,0,0-1.51-3,7.27,7.27,0,0,0-3.4-.75h-1.94Z"/><rect class="cls-1" x="206.81" width="390" height="30"/><rect class="cls-1" x="836.81" width="270" height="30"/></g></g></svg>