<svg xmlns="http://www.w3.org/2000/svg" viewBox="0 0 117.89 111.16"><defs><style>.cls-1{fill:#0e43f5;}</style></defs><g id="レイヤー_2" data-name="レイヤー 2"><g id="_2" data-name="2"><path class="cls-1" d="M26,4.37h4.51L31,.24h2.08L31.76,10.92H29.68l.58-4.76H25.75l-.58,4.76H23.09L24.4.24h2.08Z"/><path class="cls-1" d="M40.79.24,39.47,10.92H37.39L38.7.24Z"/><path class="cls-1" d="M49.3.24a4.39,4.39,0,0,1,2.86.86A3,3,0,0,1,53,3.38,3.57,3.57,0,0,1,52,6,4.22,4.22,0,0,1,49.09,7H47.66l-.48,4H45.1L46.42.24ZM47.89,5.17h.88a2.32,2.32,0,0,0,1.6-.45,1.61,1.61,0,0,0,.51-1.26,1.25,1.25,0,0,0-.57-1.14A2.75,2.75,0,0,0,49,2h-.74Z"/><path class="cls-1" d="M59.75,4.37h4.51L64.77.24h2.08L65.54,10.92H63.46L64,6.16H59.52l-.58,4.76H56.86L58.18.24h2.08Z"/><path class="cls-1" d="M81.4,1.38a4.79,4.79,0,0,1,1.4,3.55,6.54,6.54,0,0,1-1.71,4.48,6,6,0,0,1-4.45,1.75,5.22,5.22,0,0,1-3.92-1.49,5.12,5.12,0,0,1-1.41-3.54,6.22,6.22,0,0,1,1.84-4.45A6.67,6.67,0,0,1,77.7,0,5.35,5.35,0,0,1,81.4,1.38Zm-2,6.83a4.44,4.44,0,0,0,1.26-3.12,3.2,3.2,0,0,0-.85-2.26,3.29,3.29,0,0,0-2.43-.93,3.8,3.8,0,0,0-2.66,1,4.18,4.18,0,0,0-1.23,3,3.23,3.23,0,0,0,.85,2.32,3.31,3.31,0,0,0,2.43,1A3.76,3.76,0,0,0,79.38,8.21Z"/><path class="cls-1" d="M91.46.24a4.39,4.39,0,0,1,2.86.86,3,3,0,0,1,.87,2.28,3.57,3.57,0,0,1-1,2.65A4.22,4.22,0,0,1,91.25,7H89.82l-.48,4H87.26L88.58.24ZM90.05,5.17h.88a2.33,2.33,0,0,0,1.6-.45A1.61,1.61,0,0,0,93,3.46a1.24,1.24,0,0,0-.58-1.14A2.69,2.69,0,0,0,91.17,2h-.74Z"/><path class="cls-1" d="M6.75,102H3.17l-.29,2.39H6.24L6,106.21H2.66l-.58,4.71H0l1.31-10.68H7Z"/><path class="cls-1" d="M14,100.24l-.72,5.91c0,.32-.11,1-.11,1.18a2,2,0,0,0,.54,1.44,2.21,2.21,0,0,0,1.46.5,2.57,2.57,0,0,0,1.5-.45c.77-.58.86-1.51,1-2.55l.76-6h2.08l-.77,6.26A5.76,5.76,0,0,1,18.48,110a4.5,4.5,0,0,1-3.31,1.12A4.31,4.31,0,0,1,12,110.08a3.35,3.35,0,0,1-.88-2.46c0-.43.1-1.46.14-1.81l.68-5.57Z"/><path class="cls-1" d="M29.28,102l-1.09,8.89H26.11L27.2,102H24.8l.22-1.79h6.89L31.68,102Z"/><path class="cls-1" d="M38.46,100.24l-.72,5.91c0,.32-.11,1-.11,1.18a2,2,0,0,0,.55,1.44,2.19,2.19,0,0,0,1.45.5,2.58,2.58,0,0,0,1.51-.45c.77-.58.86-1.51,1-2.55l.75-6H45l-.77,6.26A5.75,5.75,0,0,1,42.93,110a4.5,4.5,0,0,1-3.31,1.12,4.29,4.29,0,0,1-3.17-1.08,3.31,3.31,0,0,1-.88-2.46c0-.43.09-1.46.14-1.81l.67-5.57Z"/><path class="cls-1" d="M53.68,100.24a3.51,3.51,0,0,1,2.66.93,2.82,2.82,0,0,1,.75,2,3.15,3.15,0,0,1-.88,2.3,3.81,3.81,0,0,1-2,.93L57,110.92h-2.5l-2.32-4.29h-.25l-.53,4.29H49.28l1.31-10.68Zm-1.62,4.91h.74a2.46,2.46,0,0,0,1.66-.56,1.61,1.61,0,0,0,.47-1.21,1.3,1.3,0,0,0-.43-1,2,2,0,0,0-1.38-.4h-.66Z"/><path class="cls-1" d="M68.71,102H64.86l-.28,2.39h3.68L68,106.21H64.35L64,109.12h3.84l-.22,1.8H61.69L63,100.24h5.92Z"/><path class="cls-1" d="M76.78,100.24a3.54,3.54,0,0,1,2.6.78,2.39,2.39,0,0,1,.69,1.83,2.52,2.52,0,0,1-.45,1.55,2.08,2.08,0,0,1-1,.82,2.94,2.94,0,0,1,1.26.78,2.23,2.23,0,0,1,.58,1.59,3.2,3.2,0,0,1-.87,2.3,4,4,0,0,1-3.2,1H72.83l1.31-10.68Zm-1.66,9H76a2.71,2.71,0,0,0,1.87-.45,1.5,1.5,0,0,0,.42-1.09,1.32,1.32,0,0,0-.36-.94,2.59,2.59,0,0,0-1.69-.47h-.77Zm.56-4.55h.45a2,2,0,0,0,1.55-.48,1.49,1.49,0,0,0,.4-1,1.17,1.17,0,0,0-.46-1,1.82,1.82,0,0,0-1.09-.27H76Z"/><path class="cls-1" d="M91.81,108.67H87.5l-1.21,2.25H84l6-10.68h1.57l3.15,10.68H92.48Zm-.4-1.69-1-3.84-2,3.84Z"/><path class="cls-1" d="M105,102.67a2,2,0,0,0-1.71-.91,1.63,1.63,0,0,0-1.14.37,1.17,1.17,0,0,0-.41.89.92.92,0,0,0,.44.82,5.38,5.38,0,0,0,1,.48l.72.31a3.69,3.69,0,0,1,1.33.89,2.27,2.27,0,0,1,.66,1.71,3.71,3.71,0,0,1-4,3.93,3.8,3.8,0,0,1-2.2-.61,5.06,5.06,0,0,1-1.36-1.41l1.52-1.3a3.55,3.55,0,0,0,.76,1,2,2,0,0,0,1.34.45,1.77,1.77,0,0,0,1.39-.53,1.53,1.53,0,0,0,.41-1.11,1.15,1.15,0,0,0-.49-1,3.88,3.88,0,0,0-1.08-.53l-.61-.26a4,4,0,0,1-1.3-.78,2.31,2.31,0,0,1-.66-1.76,3.12,3.12,0,0,1,.92-2.31,3.89,3.89,0,0,1,2.89-1,3.66,3.66,0,0,1,2.89,1.25Z"/><path class="cls-1" d="M116.62,102.67a2,2,0,0,0-1.71-.91,1.58,1.58,0,0,0-1.13.37,1.15,1.15,0,0,0-.42.89.91.91,0,0,0,.45.82,5.38,5.38,0,0,0,1,.48l.72.31a3.66,3.66,0,0,1,1.32.89,2.27,2.27,0,0,1,.66,1.71,3.71,3.71,0,0,1-4,3.93,3.79,3.79,0,0,1-2.19-.61,4.8,4.8,0,0,1-1.36-1.41l1.52-1.3a3.51,3.51,0,0,0,.75,1,2,2,0,0,0,1.35.45,1.8,1.8,0,0,0,1.39-.53,1.57,1.57,0,0,0,.4-1.11,1.17,1.17,0,0,0-.48-1,3.94,3.94,0,0,0-1.09-.53l-.61-.26a4,4,0,0,1-1.3-.78,2.29,2.29,0,0,1-.65-1.76,3.15,3.15,0,0,1,.91-2.31,3.91,3.91,0,0,1,2.9-1,3.65,3.65,0,0,1,2.88,1.25Z"/><path class="cls-1" d="M22.46,50.24a5.93,5.93,0,0,1,4.08,1.36,4.74,4.74,0,0,1,1.33,3.49A5.52,5.52,0,0,1,26.3,59.3c-1.2,1.18-2.82,1.62-5.06,1.62H18.36l1.31-10.68Zm-1.79,8.88h.7A4.31,4.31,0,0,0,24.75,58a4.31,4.31,0,0,0,1-2.83,3,3,0,0,0-.93-2.27A4,4,0,0,0,22.17,52h-.64Z"/><path class="cls-1" d="M35.69,50.24,35,56.15c0,.32-.11,1-.11,1.18a2,2,0,0,0,.54,1.44,2.23,2.23,0,0,0,1.46.5,2.54,2.54,0,0,0,1.5-.45,3.37,3.37,0,0,0,1-2.55l.76-6h2.08l-.77,6.26A5.76,5.76,0,0,1,40.15,60a4.49,4.49,0,0,1-3.31,1.12,4.31,4.31,0,0,1-3.17-1.08,3.35,3.35,0,0,1-.88-2.46c0-.43.1-1.46.15-1.81l.67-5.57Z"/><path class="cls-1" d="M50.46,50.24a3.53,3.53,0,0,1,2.59.78,2.39,2.39,0,0,1,.69,1.83,2.46,2.46,0,0,1-.45,1.55,2.08,2.08,0,0,1-1,.82,2.88,2.88,0,0,1,1.26.78,2.19,2.19,0,0,1,.58,1.59,3.24,3.24,0,0,1-.86,2.3,4,4,0,0,1-3.21,1H46.5l1.32-10.68Zm-1.67,9h.9a2.7,2.7,0,0,0,1.87-.45A1.5,1.5,0,0,0,52,57.68a1.36,1.36,0,0,0-.35-.94,2.6,2.6,0,0,0-1.7-.47h-.77Zm.56-4.55h.45a2,2,0,0,0,1.55-.48,1.49,1.49,0,0,0,.4-1,1.17,1.17,0,0,0-.46-1,1.8,1.8,0,0,0-1.09-.27h-.51Z"/><path class="cls-1" d="M65.1,52.67a2,2,0,0,0-1.72-.91,1.62,1.62,0,0,0-1.13.37,1.15,1.15,0,0,0-.42.89.93.93,0,0,0,.45.82,5.38,5.38,0,0,0,1,.48l.72.31a3.78,3.78,0,0,1,1.33.89A2.26,2.26,0,0,1,66,57.23a3.7,3.7,0,0,1-4,3.93,3.79,3.79,0,0,1-2.19-.61,5.06,5.06,0,0,1-1.36-1.41l1.52-1.3a3.71,3.71,0,0,0,.75,1,2,2,0,0,0,1.35.45,1.79,1.79,0,0,0,1.39-.53,1.53,1.53,0,0,0,.4-1.11,1.17,1.17,0,0,0-.48-1,3.8,3.8,0,0,0-1.09-.53l-.61-.26a3.91,3.91,0,0,1-1.29-.78,2.31,2.31,0,0,1-.66-1.76A3.15,3.15,0,0,1,60.58,51a3.92,3.92,0,0,1,2.9-1,3.65,3.65,0,0,1,2.88,1.25Z"/><path class="cls-1" d="M75,52l-1.09,8.89H71.86L73,52h-2.4l.22-1.79h6.89L77.43,52Z"/><path class="cls-1" d="M87.87,52H84l-.28,2.39h3.68l-.23,1.79H83.51l-.35,2.91H87l-.22,1.8H80.85l1.32-10.68h5.92Z"/><path class="cls-1" d="M96.18,50.24a4.4,4.4,0,0,1,2.87.86,3,3,0,0,1,.86,2.28,3.61,3.61,0,0,1-1,2.65A4.22,4.22,0,0,1,96,57H94.55l-.48,4H92L93.3,50.24Zm-1.4,4.93h.88a2.33,2.33,0,0,0,1.6-.45,1.61,1.61,0,0,0,.51-1.26,1.24,1.24,0,0,0-.58-1.14A2.69,2.69,0,0,0,95.9,52h-.74Z"/></g></g></svg>