<svg xmlns="http://www.w3.org/2000/svg" viewBox="0 0 147.85 31.69"><defs><style>.cls-1{fill:#0e43f5;}</style></defs><g id="レイヤー_2" data-name="レイヤー 2"><g id="レイヤー_1-2" data-name="レイヤー 1"><path class="cls-1" d="M20.32,29.14l.27-1.53H4.46L4.22,29H0L4.09,5.81H28.65L24.54,29.14ZM23.73,9.82H7.6L5.17,23.61H21.3Z"/><path class="cls-1" d="M42.13,4.18c-.6.39-.64.43-.66.53l-2.64,15H34.61l3-16.73,4.16.36c.28,0,.91.07.85.39S42.3,4,42.13,4.18Zm14.75-.24c-.54.46-.56.56-.73,1.56-.09.31-.3,1.91-.37,2.26-1.22,6.92-1.78,9.72-3.52,13.15C49.06,27.19,44,29.81,40,31.69L37.5,28.25C45.27,25.38,48.91,22,50.8,11.31c.15-.85,1-5.78,1.27-8.62l4.49.25c.18,0,.88,0,.81.46C57.35,3.51,57.29,3.65,56.88,3.94Z"/><path class="cls-1" d="M69.3,19c-.48.14-.56.17-.65.31a41.28,41.28,0,0,1-7.34,7L58.1,24a33,33,0,0,0,8.53-8L69.23,18c.1.07.6.43.55.71S69.49,18.93,69.3,19Zm7.55-5.82L74.46,26.73c-.61,3.47-1.74,3.83-7.5,3.93l-.62-4.11a15.89,15.89,0,0,0,2.75.28c1.17,0,1.46-.28,1.62-1.16l2.21-12.52H62.57l.65-3.72H73.57L74.71,3l3.67.46c.8.11.9.32.87.5s-.19.28-.58.5c-.13.1-.32.21-.36.39l-.8,4.57H87.68L87,13.15Zm6.39,12.44a20.54,20.54,0,0,0-4.31-7.33l3.15-2.38a26.28,26.28,0,0,1,4.72,7.2Zm4-18.07A9.45,9.45,0,0,0,85,4.5l2-1.59a12.56,12.56,0,0,1,2.43,2.9Zm4.22-2.81A11.53,11.53,0,0,0,89,1.6L91,0a13.11,13.11,0,0,1,2.5,3.16Z"/><path class="cls-1" d="M92.39,19.18l.79-4.5h25.2l-.79,4.5Z"/><path class="cls-1" d="M146.94,6c-.54,0-.63.1-1.22.63a57.23,57.23,0,0,1-6.82,5.53L135.57,31h-4.43l2.75-15.6a78.66,78.66,0,0,1-9.82,5l-2.53-3.15A70.17,70.17,0,0,0,144.76,2.23l2.63,2.56c.12.1.5.56.45.85S147.65,5.92,146.94,6Z"/></g></g></svg>