<svg xmlns="http://www.w3.org/2000/svg" viewBox="0 0 60 60"><defs><style>.cls-1{fill:#0e43f5;}</style></defs><g id="レイヤー_2" data-name="レイヤー 2"><g id="レイヤー_1-2" data-name="レイヤー 1"><path class="cls-1" d="M0,8.4v8.4H16.8V0H0Zm14.4,0v6H2.4V2.4h12Z"/><path class="cls-1" d="M4.8,8.4V12H12V4.8H4.8Z"/><path class="cls-1" d="M21.6,3.6V7.2H19.2V12h2.4v2.4H19.2v2.4h2.4v4.8H24V24H14.4V21.6h4.8V19.2H12V24h2.4v2.4H12v2.4H9.6V21.6H4.8V19.2H0v2.4H4.8V24H0v4.8H2.4v2.4H0v9.6H2.4V33.6H4.8V36H9.6v2.4H12v2.4h7.2V48h2.4v2.4h4.8V48h2.4v2.4h2.4v2.4h2.4v2.4H36v2.4h2.4V60h7.2V57.6h4.8V60h2.4V57.6H50.4V55.2h4.8V52.8h2.4V60H60V50.4H57.6V48H52.8v2.4h2.4v2.4H50.4v2.4H43.2V52.8h2.4V50.4h4.8v-12h2.4v2.4h2.4V36h2.4v2.4H60V33.6H57.6V31.2H60V24H57.6V21.6H52.8V19.2H48v2.4H45.6V24H43.2V21.6H33.6V19.2h7.2V14.4H38.4v2.4H36V12H33.6V7.2H36V0H33.6V2.4H31.2V0H28.8V2.4h2.4V4.8h2.4V7.2H31.2V9.6H26.4V7.2h2.4V4.8H26.4V2.4H24V0H21.6ZM24,8.4V9.6h2.4V12h7.2v7.2H31.2v2.4H26.4V19.2H24V16.8H21.6V14.4H24v2.4h2.4V12H21.6V7.2H24ZM7.2,25.2v1.2H4.8V24H7.2Zm24,0v1.2h2.4v2.4H36v4.8H33.6v4.8H28.8V36H26.4v4.8H24v2.4h2.4v2.4H24V43.2H21.6V40.8H19.2V36h2.4v4.8H24V33.6H21.6V31.2H24v2.4h4.8V31.2H26.4V26.4H24v2.4H21.6V26.4H24V24h7.2Zm9.6,1.2v2.4h2.4V26.4h2.4V24h4.8v4.8h2.4V24h2.4v2.4h2.4v4.8H55.2V36H52.8V33.6H48V31.2H45.6V36H40.8v2.4H36V36h4.8V31.2H38.4V24h2.4Zm-24,1.2v1.2H14.4v2.4h4.8v2.4H14.4V36h2.4v2.4H12V33.6H4.8V28.8H7.2v2.4H12V28.8h2.4V26.4h2.4Zm33.6,9.6v1.2H48V36h2.4ZM31.2,42v1.2h2.4V40.8h4.8v4.8H33.6V48H31.2V43.2H28.8V40.8h2.4ZM48,44.4V48H40.8V40.8H48Zm-9.6,7.2v1.2h2.4v2.4H36V50.4h2.4Z"/><path class="cls-1" d="M28.8,15.6v1.2H26.4v2.4h2.4V16.8h2.4V14.4H28.8Z"/><path class="cls-1" d="M28.8,27.6v1.2h2.4v4.8h2.4V28.8H31.2V26.4H28.8Z"/><path class="cls-1" d="M45.6,27.6v1.2H43.2v2.4h2.4V28.8H48V26.4H45.6Z"/><path class="cls-1" d="M12,32.4v1.2h2.4V31.2H12Z"/><path class="cls-1" d="M43.2,44.4v1.2h2.4V43.2H43.2Z"/><path class="cls-1" d="M43.2,8.4v8.4H60V0H43.2Zm14.4,0v6h-12V2.4h12Z"/><path class="cls-1" d="M48,8.4V12h7.2V4.8H48Z"/><path class="cls-1" d="M38.4,3.6V4.8h2.4V2.4H38.4Z"/><path class="cls-1" d="M38.4,9.6V12h2.4V7.2H38.4Z"/><path class="cls-1" d="M4.8,39.6v1.2H7.2V38.4H4.8Z"/><path class="cls-1" d="M0,51.6V60H16.8V43.2H0Zm14.4,0v6H2.4v-12h12Z"/><path class="cls-1" d="M4.8,51.6v3.6H12V48H4.8Z"/><path class="cls-1" d="M57.6,44.4v1.2H60V43.2H57.6Z"/><path class="cls-1" d="M19.2,57.6V60h2.4V55.2H19.2Z"/><path class="cls-1" d="M28.8,57.6V60h2.4V55.2H28.8Z"/></g></g></svg>