<svg xmlns="http://www.w3.org/2000/svg" viewBox="0 0 1076.75 306.75"><defs><style>.cls-1{fill:#0e43f5;}</style></defs><g id="レイヤー_2" data-name="レイヤー 2"><g id="レイヤー_1-2" data-name="レイヤー 1"><path class="cls-1" d="M93.4,111.2H43L32.8,136.4H.8L54.6,3H82.8l52.6,133.4h-32ZM85,87.6,68.6,42.8,52,87.6Z"/><path class="cls-1" d="M210.1,3c7.2,0,23.6.4,34,10.2,8.6,8.2,9.6,19.4,9.6,25.2a31.33,31.33,0,0,1-4.4,17,24.44,24.44,0,0,1-11.2,9.8,34.74,34.74,0,0,1,18.4,9c4.4,4.4,8.6,12,8.6,23.8,0,13.4-5.2,21.8-10.4,27-11,10.6-27,11.4-35.2,11.4H169.3V3ZM199.7,57.2h5c4.2,0,11.2-.6,15.6-3.8,2.8-2,5.4-6,5.4-11.8a13.59,13.59,0,0,0-5.2-11.2c-4.4-3.4-10.4-3.4-16-3.4h-4.8Zm0,55.2h7.4c7.8,0,17.2-.2,22.8-5.4,2.8-2.6,4.4-6.4,4.4-11.2,0-5.4-2.2-9-4.2-10.8-5.4-5-15.8-5-22-5h-8.4Z"/><path class="cls-1" d="M422.9,19.4c12.6,12.2,20.8,29.8,20.8,50.4a69,69,0,0,1-20.8,50c-12.4,12-29.2,19.6-51.6,19.6-25,0-42-10-52-19.6-12.8-12-20.8-30-20.8-49.6,0-19.2,8.6-38.6,20.6-50.6,9-9,25.6-19.6,52.2-19.6C392.1,0,409.5,6.4,422.9,19.4Zm-81,20.4c-5.8,5.6-11.8,15.4-11.8,30.2,0,12.2,4,22,12.2,30,8.6,8.2,18.2,11,28.6,11,13.6,0,23.2-5,29.6-11.4,5.2-5,11.6-14.4,11.6-29.8,0-13.8-5.6-24-11.6-30-6.6-6.4-17.2-11.4-29.4-11.4C359.5,28.4,349.1,32.6,341.9,39.8Z"/><path class="cls-1" d="M597.43,82c0,12.8-1.6,28.6-14.8,42.2-12.8,13.2-27.6,15.2-41.6,15.2s-28.8-2-41.6-15.2c-13.2-13.6-14.8-29.4-14.8-42.2V3h30.8V81.2c0,5.8.4,15.6,7,22.4,5.4,5.8,12.8,7,18.6,7s13.2-1.2,18.6-7c6.6-6.8,7-16.6,7-22.4V3h30.8Z"/><path class="cls-1" d="M691.67,29V136.4h-30.8V29h-29V3h88.8V29Z"/><path class="cls-1" d="M939.24,82c0,12.8-1.6,28.6-14.8,42.2-12.8,13.2-27.6,15.2-41.6,15.2s-28.8-2-41.6-15.2c-13.2-13.6-14.8-29.4-14.8-42.2V3h30.8V81.2c0,5.8.4,15.6,7,22.4,5.4,5.8,12.8,7,18.6,7s13.2-1.2,18.6-7c6.6-6.8,7-16.6,7-22.4V3h30.8Z"/><path class="cls-1" d="M1057.75,35.6c-10-9-18.6-9.6-22.4-9.6-4.2,0-9.4.6-13,4.6A11.93,11.93,0,0,0,1019,39a9.36,9.36,0,0,0,3,7.4c3.2,3,7.8,4.2,16.8,7.6l10,3.8c5.8,2.2,13,5.2,18.2,10.2,7.8,7.4,9.8,17,9.8,24.8,0,13.8-4.8,25.8-11.8,33-11.8,12.4-29,13.6-37.8,13.6-9.6,0-18-1.4-26.4-5.6-6.8-3.4-14.6-9.6-19.6-14.6l16-22a81.68,81.68,0,0,0,12.4,10.2,31,31,0,0,0,16.8,4.8c4,0,9.6-.8,14-4.6a13.8,13.8,0,0,0,4.8-10.8,11.76,11.76,0,0,0-4.6-9.6c-3.6-3-11.8-6-15.6-7.4L1014,76c-6.2-2.2-13.4-5-18.6-10.6-7-7.4-8-16.8-8-23.2,0-11.8,3.6-21.8,11.6-30,9.4-9.6,20.6-12.2,33-12.2a64.48,64.48,0,0,1,39.6,13.2Z"/><path class="cls-1" d="M945.4,199.35H30.8v25.8H943.2v26H30.8v29.6H945.4v26H0V173.35H945.4Z"/><path class="cls-1" d="M1028.45,173.35c11.6,0,24.4,1.6,35,11,11.4,10,13,23.2,13,32.4,0,16.8-6.4,26.2-11.4,31.4-10.6,10.8-24.6,11.8-34,11.8h-18.8v46.8h-30.8V173.35Zm-16.2,61.4h11c4.2,0,11.6-.2,16.6-5a18.58,18.58,0,0,0,5-13.2c0-5.6-2-10.2-5-13-4.6-4.4-11.2-5-17.2-5h-10.4Z"/></g></g></svg>