<svg xmlns="http://www.w3.org/2000/svg" viewBox="0 0 71.01 12.61"><defs><style>.cls-1{fill:#0e43f5;}</style></defs><g id="レイヤー_2" data-name="レイヤー 2"><g id="_2" data-name="2"><path class="cls-1" d="M4.33,2.69l-1.19,9.7H1.41L2.6,2.69H0L.2,1.05H7.14L6.93,2.69Z"/><path class="cls-1" d="M7.51,5.24H9.18l-.09.64a2.55,2.55,0,0,1,.77-.61A2.32,2.32,0,0,1,11,5.05a2.2,2.2,0,0,1,1.22.34L11.36,6.9a1.57,1.57,0,0,0-.89-.25,1.47,1.47,0,0,0-1.1.42,3.2,3.2,0,0,0-.62,1.62l-.45,3.7H6.63Z"/><path class="cls-1" d="M18.24,5.24h1.67L19,12.39H17.36l.08-.75a3.14,3.14,0,0,1-1,.72,3.6,3.6,0,0,1-1.31.25,2.84,2.84,0,0,1-2-.78,3.66,3.66,0,0,1-1-2.58,4.57,4.57,0,0,1,1.24-3.2,3.49,3.49,0,0,1,2.61-1,2.48,2.48,0,0,1,2.13,1ZM14.67,7.1a2.9,2.9,0,0,0-.8,2,2.19,2.19,0,0,0,.56,1.5,1.61,1.61,0,0,0,1.21.51,2.16,2.16,0,0,0,1.56-.63,2.9,2.9,0,0,0,.73-2A2.15,2.15,0,0,0,17.37,7a1.74,1.74,0,0,0-1.27-.48A2,2,0,0,0,14.67,7.1Z"/><path class="cls-1" d="M27.32,7.46a3.34,3.34,0,0,0-.85-.64,2.09,2.09,0,0,0-1-.28A2.4,2.4,0,0,0,22.92,9a2.16,2.16,0,0,0,.61,1.56,2.18,2.18,0,0,0,1.48.53,2.77,2.77,0,0,0,1.15-.26,3,3,0,0,0,.82-.61l-.22,1.87a3.62,3.62,0,0,1-2.13.49,3.24,3.24,0,0,1-2.43-.92,3.46,3.46,0,0,1-1-2.6,4.05,4.05,0,0,1,1.19-2.94,4,4,0,0,1,2.92-1.1,3.92,3.92,0,0,1,2.23.61Z"/><path class="cls-1" d="M31.5,0l-.95,7.63,2.63-2.39h2.21l-3.48,3,2.79,4.16H32.62l-2-3.06-.34.31L30,12.39H28.3L29.83,0Z"/><path class="cls-1" d="M39.13,7.12a1,1,0,0,0-.34-.44.72.72,0,0,0-.51-.17.78.78,0,0,0-.57.2.56.56,0,0,0-.16.38.49.49,0,0,0,.21.41,4,4,0,0,0,.69.37l.48.24a3.28,3.28,0,0,1,.9.61,2.1,2.1,0,0,1,.54,1.48,2.28,2.28,0,0,1-.71,1.73,2.82,2.82,0,0,1-2,.68,2.68,2.68,0,0,1-1.59-.46,2.61,2.61,0,0,1-.89-1.31l1.45-.64a1.46,1.46,0,0,0,.39.7,1,1,0,0,0,.7.25,1,1,0,0,0,.66-.22.77.77,0,0,0,.27-.63.8.8,0,0,0-.24-.59,2.47,2.47,0,0,0-.68-.41l-.46-.24a3.81,3.81,0,0,1-.81-.54A1.64,1.64,0,0,1,36,7.27a2.25,2.25,0,0,1,.65-1.58,2.39,2.39,0,0,1,1.77-.64,2.1,2.1,0,0,1,1.24.34,2.55,2.55,0,0,1,.81.92Z"/><path class="cls-1" d="M46,7.9H50l-.2,1.74H45.75Z"/><path class="cls-1" d="M66.26,8.65h1.23l-.19,1.6H66.08l-.28,2.14H64.14l.27-2.14H58.79L67.3.22Zm-1.66,0L65,5.13,62.1,8.65Z"/><path class="cls-1" d="M69.24,10.9a1.1,1.1,0,0,1,.83-.34.89.89,0,0,1,.67.25.94.94,0,0,1,.27.68,1.14,1.14,0,0,1-.34.8,1.12,1.12,0,0,1-.78.31,1,1,0,0,1-.68-.24.91.91,0,0,1-.28-.68A1.16,1.16,0,0,1,69.24,10.9Z"/></g></g></svg>