<svg id="レイヤー_1" data-name="レイヤー 1" xmlns="http://www.w3.org/2000/svg" viewBox="0 0 1123.2 1802"><defs><style>.cls-1,.cls-3{fill:#0e43f5;}.cls-2,.cls-4{fill:none;}.cls-2,.cls-3,.cls-4{stroke:#0e43f5;}.cls-2{stroke-width:2px;}.cls-3,.cls-4{stroke-width:1.5px;}</style></defs><g id="レイヤー_2" data-name="レイヤー 2"><g id="レイヤー_1-2" data-name="レイヤー 1-2"><path class="cls-1" d="M26.9,43.14H17.4l1.6-13H43.9l-8.2,66.7H20.3Z"/><path class="cls-1" d="M65.9,80.24a9.1,9.1,0,1,1-9.1,9.1h0a9,9,0,0,1,8.9-9.1Z"/><path class="cls-1" d="M150.8,84.24H125.6l-6.3,12.6H102.7l35.2-66.7h14.2L170,96.84H154.2ZM148,72.44l-5.4-23.5-11.2,23.5Z"/><path class="cls-1" d="M195.5,57.24a17.3,17.3,0,0,1,5.5-4.6,19.11,19.11,0,0,1,8.7-1.9c5.4,0,9.8,1.4,13.5,4.8,5.3,4.9,6.4,11.4,6.4,16.3,0,8.2-2.6,15.4-7.3,20.2s-10.2,6.3-16.5,6.3a19.64,19.64,0,0,1-9.4-2.1,17.7,17.7,0,0,1-5.4-4.9l-.4,5.5H176.2l9.1-72.9h14.4Zm.8,9a13,13,0,0,0-3.7,9.2c0,4.3,1.8,6.7,2.9,7.7a10.91,10.91,0,0,0,7.3,2.8,12.14,12.14,0,0,0,8.2-3.3,13.57,13.57,0,0,0,3.8-9.3,10.27,10.27,0,0,0-3.1-7.5,9.69,9.69,0,0,0-7.1-2.7A11.4,11.4,0,0,0,196.3,66.24Z"/><path class="cls-1" d="M282.8,57.64a21.15,21.15,0,0,1,6,15.1A26.73,26.73,0,0,1,281.6,91c-6.3,6.4-14,7.3-20.5,7.3-5.7,0-12.9-.8-18.6-6.7a22.46,22.46,0,0,1-6.1-15.7,24.32,24.32,0,0,1,7.2-17.6c4.9-4.8,12.3-7.6,20.5-7.6C271.3,50.74,278.4,53.24,282.8,57.64Zm-12.5,25.3a13.36,13.36,0,0,0,3.7-9.5,10.52,10.52,0,0,0-3-7.7,12.05,12.05,0,0,0-15.8.3,12.85,12.85,0,0,0-4,9.5,11.12,11.12,0,0,0,2.9,7.6,10.31,10.31,0,0,0,7.8,3A12.14,12.14,0,0,0,270.3,82.94Z"/><path class="cls-1" d="M346.3,52.24l-2.8,24.1c-.6,5.3-1.5,11.5-6.5,16.3-5.3,5.1-12.4,5.7-17.5,5.7-4.5,0-12.4-.3-17.4-5.1a16.58,16.58,0,0,1-4.8-12,57.71,57.71,0,0,1,.5-6.3l2.7-22.7h14.4l-2.6,22.2c-.3,2.8-.5,3.8-.5,4.9a6.38,6.38,0,0,0,1.9,4.9,10,10,0,0,0,12.5-.6c.6-.6,2.3-2.7,2.9-8l2.8-23.4Z"/><path class="cls-1" d="M371.2,63.84l-4.1,33H352.7l4.09-33h-5.2L353,52.24h5.2l1.8-14.4h14.4l-1.8,14.4h8.8L380,63.84Z"/><path class="cls-1" d="M456.5,52.24l-2.8,24.1c-.6,5.3-1.5,11.5-6.5,16.3-5.3,5.1-12.41,5.7-17.51,5.7-4.5,0-12.4-.3-17.4-5.1a16.58,16.58,0,0,1-4.8-12,57.71,57.71,0,0,1,.5-6.3l2.7-22.7h14.4l-2.6,22.2c-.3,2.8-.5,3.8-.5,4.9a6.38,6.38,0,0,0,1.9,4.9,10,10,0,0,0,12.51-.6c.6-.6,2.3-2.7,2.89-8l2.81-23.4Z"/><path class="cls-1" d="M493.49,64.14a14.15,14.15,0,0,0-8.4-3,7,7,0,0,0-4.3,1.2,3,3,0,0,0-1,2.2,2.71,2.71,0,0,0,1.4,2.4,15.41,15.41,0,0,0,3.5,1.2l3.3.9a16,16,0,0,1,7.7,4.2,11.25,11.25,0,0,1,3.3,8.5,15.28,15.28,0,0,1-4.2,11c-4.8,5-11.8,5.6-15.7,5.6a27,27,0,0,1-11.6-2.2,26,26,0,0,1-6.9-4.6l6.1-9.7a21.34,21.34,0,0,0,5.5,3.7,16.16,16.16,0,0,0,6.2,1.4,8.43,8.43,0,0,0,4.4-1,3.07,3.07,0,0,0,1.8-2.9,3.21,3.21,0,0,0-1.4-2.8,15.69,15.69,0,0,0-3.5-1.3l-3.2-1a17.79,17.79,0,0,1-7.5-4,11.35,11.35,0,0,1-3-8,14.8,14.8,0,0,1,4.2-10.4c4.6-4.5,11.5-4.8,14.7-4.8a24.39,24.39,0,0,1,14.7,4.5Z"/><path class="cls-1" d="M99.82,127.72H89.45l-.76,6.19h9.6l-.77,6.24h-9.6L86.24,153.5H78.85l4-32h17.76Z"/><path class="cls-1" d="M113.31,121.48,111.2,139a14.47,14.47,0,0,0-.24,2.79,5.62,5.62,0,0,0,1.39,4.13,6,6,0,0,0,4.22,1.44,6.45,6.45,0,0,0,4.71-1.59c1.58-1.58,1.92-4.27,2.16-6.09l2.21-18.15H133l-2.3,18.63c-.48,3.84-.92,7.72-3.8,10.65-3.21,3.31-7.87,3.46-10.51,3.46-3.17,0-7.2-.39-10.13-3.31a9.73,9.73,0,0,1-2.83-7.4c0-1.44.24-3.74.38-5l2.07-17Z"/><path class="cls-1" d="M150.51,127.72l-3.17,25.78H140l3.17-25.78h-7l.76-6.24h21.32l-.77,6.24Z"/><path class="cls-1" d="M169.47,121.48,167.36,139a14.47,14.47,0,0,0-.24,2.79,5.62,5.62,0,0,0,1.39,4.13,6,6,0,0,0,4.22,1.44,6.45,6.45,0,0,0,4.71-1.59c1.58-1.58,1.92-4.27,2.16-6.09l2.21-18.15h7.39l-2.31,18.63c-.47,3.84-.91,7.72-3.79,10.65-3.21,3.31-7.87,3.46-10.51,3.46-3.17,0-7.2-.39-10.13-3.31a9.72,9.72,0,0,1-2.83-7.4c0-1.44.24-3.74.38-5l2.07-17Z"/><path class="cls-1" d="M206.24,121.48c3.07,0,6.09.29,8.49,2.88a9.11,9.11,0,0,1,2.31,6.53,9.72,9.72,0,0,1-2.64,7,10.37,10.37,0,0,1-5.09,2.59l8.26,13h-8.64l-7.73-12.63-1.54,12.63h-7.39l3.94-32ZM201.77,136h1.83a7.17,7.17,0,0,0,4.32-1.15,4.45,4.45,0,0,0,1.63-3.74A3.43,3.43,0,0,0,208,128a7.49,7.49,0,0,0-4-.77h-1.1Z"/><path class="cls-1" d="M242.24,127.72H231.77l-.77,6.19h10.09l-.77,6.24H230.24l-.87,7.11H240l-.77,6.24H221.4l3.94-32H243Z"/><path class="cls-1" d="M249.44,121.48h10.22c2.16,0,5,.24,7.06,2.21a7.45,7.45,0,0,1,2.06,5.47,8.12,8.12,0,0,1-1.49,5,6.46,6.46,0,0,1-3.36,2.45,8,8,0,0,1,3.65,1.92,6.55,6.55,0,0,1,2.07,5.09,9.4,9.4,0,0,1-2.6,6.86c-2.54,2.55-6.28,3-9.64,3H245.5Zm4.17,26.26h2.69c1.39,0,3.65-.15,4.8-1.2a4,4,0,0,0,1.15-3.07,3.37,3.37,0,0,0-.86-2.4c-1.06-1.06-3.26-1.11-3.94-1.11h-2.88Zm1.64-13.25h1.48a5.93,5.93,0,0,0,4.08-1.2,4.1,4.1,0,0,0,1.11-2.88,3,3,0,0,0-1-2.4,5.24,5.24,0,0,0-3.27-.77h-1.53Z"/><path class="cls-1" d="M293.84,147.45h-12.1l-3,6.05h-8l16.89-32h6.82l8.59,32h-7.58Zm-1.35-5.66L289.9,130.5l-5.38,11.29Z"/><path class="cls-1" d="M326,129.3a8,8,0,0,0-5.37-2.3,5,5,0,0,0-3,.82,3,3,0,0,0-1.1,2.3,2.61,2.61,0,0,0,1.1,2.16,13.24,13.24,0,0,0,3.12,1.68l1.88.86a11.12,11.12,0,0,1,4.22,3.08,7.37,7.37,0,0,1,1.63,5,11.72,11.72,0,0,1-3.21,8.21c-2.6,2.54-5.91,3.12-9.17,3.12a12.45,12.45,0,0,1-6.39-1.44,17.81,17.81,0,0,1-4.27-3.41l4.13-5.28a11.2,11.2,0,0,0,2.69,2.54A7.17,7.17,0,0,0,316,147.7a6.64,6.64,0,0,0,3.55-1,3.71,3.71,0,0,0,1.35-3,3,3,0,0,0-.91-2.21,7.58,7.58,0,0,0-2.55-1.44l-1.87-.77a14.14,14.14,0,0,1-4.51-2.83A7.41,7.41,0,0,1,309,131a10.06,10.06,0,0,1,2.87-7.25c2.6-2.54,5.91-3,8.65-3a14.23,14.23,0,0,1,9.26,3.17Z"/><path class="cls-1" d="M351.44,129.3a8,8,0,0,0-5.38-2.3,4.91,4.91,0,0,0-3,.82,3,3,0,0,0-1.11,2.3,2.61,2.61,0,0,0,1.11,2.16,12.88,12.88,0,0,0,3.12,1.68l1.87.86a11.12,11.12,0,0,1,4.22,3.08,7.37,7.37,0,0,1,1.63,5,11.72,11.72,0,0,1-3.21,8.21c-2.59,2.54-5.91,3.12-9.17,3.12a12.45,12.45,0,0,1-6.39-1.44,17.81,17.81,0,0,1-4.27-3.41L335,144.1a11.2,11.2,0,0,0,2.69,2.54,7.17,7.17,0,0,0,3.74,1.06,6.68,6.68,0,0,0,3.56-1,3.73,3.73,0,0,0,1.34-3,3,3,0,0,0-.91-2.21,7.58,7.58,0,0,0-2.55-1.44l-1.87-.77a14.14,14.14,0,0,1-4.51-2.83,7.39,7.39,0,0,1-2.11-5.43,10,10,0,0,1,2.88-7.25c2.59-2.54,5.9-3,8.64-3a14.17,14.17,0,0,1,9.26,3.17Z"/><path class="cls-1" d="M360.7,146.11l6.53.33-8.88,13.39-4.61-.19Z"/><path class="cls-1" d="M385.32,121.48c3.31,0,8.64.48,12.24,4.08,2.12,2.11,3.84,5.62,3.84,10.66,0,7.34-3.36,11.33-5,12.86-3.7,3.51-8.74,4.42-14.54,4.42H372l3.93-32Zm-5.13,25.78h2.25c2.16,0,5.57-.15,8.16-2.45a11.19,11.19,0,0,0,3.22-8.4,8.8,8.8,0,0,0-2.31-6.43,9.86,9.86,0,0,0-6.67-2.26h-2.25Z"/><path class="cls-1" d="M416.19,121.48,414.07,139a16.25,16.25,0,0,0-.24,2.79,5.62,5.62,0,0,0,1.4,4.13,6,6,0,0,0,4.22,1.44,6.45,6.45,0,0,0,4.71-1.59c1.58-1.58,1.92-4.27,2.16-6.09l2.2-18.15h7.4l-2.31,18.63c-.48,3.84-.91,7.72-3.79,10.65-3.22,3.31-7.87,3.46-10.51,3.46-3.17,0-7.2-.39-10.13-3.31a9.72,9.72,0,0,1-2.83-7.4c0-1.44.23-3.74.38-5l2.06-17Z"/><path class="cls-1" d="M442.92,121.48h10.23c2.16,0,5,.24,7.05,2.21a7.41,7.41,0,0,1,2.07,5.47,8.12,8.12,0,0,1-1.49,5,6.52,6.52,0,0,1-3.36,2.45,8,8,0,0,1,3.65,1.92,6.54,6.54,0,0,1,2.06,5.09,9.39,9.39,0,0,1-2.59,6.86c-2.54,2.55-6.29,3-9.65,3H439Zm4.18,26.26h2.69c1.39,0,3.64-.15,4.8-1.2a4,4,0,0,0,1.15-3.07,3.42,3.42,0,0,0-.86-2.4c-1.06-1.06-3.27-1.11-3.94-1.11h-2.88Zm1.63-13.25h1.49a6,6,0,0,0,4.08-1.2,4,4,0,0,0,1.1-2.88,3,3,0,0,0-1-2.4,5.19,5.19,0,0,0-3.26-.77H449.6Z"/><path class="cls-1" d="M487,129.3a8,8,0,0,0-5.38-2.3,5,5,0,0,0-3,.82,3,3,0,0,0-1.1,2.3,2.61,2.61,0,0,0,1.1,2.16,13.24,13.24,0,0,0,3.12,1.68l1.88.86a11.12,11.12,0,0,1,4.22,3.08,7.37,7.37,0,0,1,1.63,5,11.72,11.72,0,0,1-3.21,8.21c-2.6,2.54-5.91,3.12-9.17,3.12a12.45,12.45,0,0,1-6.39-1.44,17.81,17.81,0,0,1-4.27-3.41l4.13-5.28a11.2,11.2,0,0,0,2.69,2.54A7.17,7.17,0,0,0,477,147.7a6.64,6.64,0,0,0,3.55-1,3.71,3.71,0,0,0,1.35-3,3,3,0,0,0-.91-2.21,7.58,7.58,0,0,0-2.55-1.44l-1.87-.77a14.14,14.14,0,0,1-4.51-2.83A7.4,7.4,0,0,1,470,131a10,10,0,0,1,2.88-7.25c2.59-2.54,5.9-3,8.64-3a14.23,14.23,0,0,1,9.26,3.17Z"/><path class="cls-1" d="M508.3,127.72l-3.17,25.78h-7.39l3.17-25.78h-7l.77-6.24H516l-.77,6.24Z"/><path class="cls-1" d="M536.81,127.72H526.34l-.76,6.19h10.08l-.77,6.24H524.81l-.87,7.11H534.6l-.77,6.24H516l3.93-32H537.6Z"/><path class="cls-1" d="M554.81,121.48c2.25,0,5.71.1,8.3,2.69a9.29,9.29,0,0,1,2.6,6.86c0,3.55-1.21,6.63-3.13,8.4-1.43,1.35-4.17,2.84-9.5,2.84h-4.22l-1.4,11.23h-7.39l3.94-32Zm-5.23,14.74h2.64c1.58,0,3.41-.15,4.65-1.4a4.46,4.46,0,0,0,1.25-3.31,3.64,3.64,0,0,0-1.06-2.78c-1.15-1.11-3.07-1.2-4.17-1.2h-2.21Z"/><path class="cls-1" d="M21,576.84a157.06,157.06,0,0,0,12.6-13.7c2.3-2.9,6.1-8.2,6.1-13.4a8.08,8.08,0,0,0-2.5-6.2,8.91,8.91,0,0,0-6-1.9,7.88,7.88,0,0,0-6.3,2.5c-1.6,1.8-2.7,5.3-2.9,8.1H6.6a28.19,28.19,0,0,1,6.9-16.3c5.3-5.7,12-7.3,18.7-7.3,8,0,14.1,2.5,17.8,6.1,2.7,2.6,5.5,7.2,5.5,14.2a25.74,25.74,0,0,1-4.4,14.4,85.7,85.7,0,0,1-10.9,12.1l-9.1,8.4H52.2l-1.7,13H1Z"/><path class="cls-1" d="M71.1,580.24a9.1,9.1,0,1,1-9.1,9.1h0a9,9,0,0,1,8.9-9.1Z"/><path class="cls-1" d="M138.6,530.14l-8.2,66.7H115l8.2-66.7Z"/><path class="cls-1" d="M163.8,552.24l-.7,4.9a21.26,21.26,0,0,1,5.5-4.2,16.8,16.8,0,0,1,8.8-1.9c3.7,0,8.2.5,11.6,3.8s3.8,7.9,3.8,10.6a67.19,67.19,0,0,1-.7,8.5l-2.7,22.9H175l2.4-19.3a54.2,54.2,0,0,0,.6-7.2,7.7,7.7,0,0,0-1.8-5.4,7.39,7.39,0,0,0-5.3-1.9,8.65,8.65,0,0,0-6.5,2.4c-2.6,2.7-3.2,7-3.5,9.4l-2.6,22H143.9l5.5-44.6Z"/><path class="cls-1" d="M219.6,563.84l-4.1,33H201.1l4.1-33H200l1.4-11.6h5.2l1.8-14.4h14.4l-1.8,14.4h8.8l-1.4,11.6Z"/><path class="cls-1" d="M236,552.24h14.4l-1.3,6.6a14,14,0,0,1,5.6-5.9,16.71,16.71,0,0,1,7.5-1.8,23,23,0,0,1,5.9.7l-2.8,13.4a13.79,13.79,0,0,0-6.3-1.5,10.61,10.61,0,0,0-7.4,2.7c-2.5,2.4-3.7,6.6-4.3,11.4l-2.4,19H230.5Z"/><path class="cls-1" d="M314.7,557.64a21.15,21.15,0,0,1,6,15.1,26.73,26.73,0,0,1-7.2,18.3c-6.3,6.4-14,7.3-20.5,7.3-5.7,0-12.91-.8-18.61-6.7a22.46,22.46,0,0,1-6.1-15.7,24.27,24.27,0,0,1,7.21-17.6c4.9-4.8,12.3-7.6,20.5-7.6C303.2,550.74,310.3,553.24,314.7,557.64Zm-12.5,25.3a13.36,13.36,0,0,0,3.7-9.5,10.52,10.52,0,0,0-3-7.7,12.05,12.05,0,0,0-15.8.3,12.85,12.85,0,0,0-4,9.5,11.06,11.06,0,0,0,2.9,7.6,10.31,10.31,0,0,0,7.8,3A12.14,12.14,0,0,0,302.2,582.94Z"/><path class="cls-1" d="M369.7,523.94h14.4l-9,72.9H360.8l.8-5.1a14.74,14.74,0,0,1-5.9,5,20.51,20.51,0,0,1-8.61,1.6c-5.4,0-9.8-1.5-13.5-5.1s-6.1-9.1-6.1-16.2c0-7.3,2.5-14.8,7.7-20a21.83,21.83,0,0,1,16-6.3,17.86,17.86,0,0,1,14.4,6.9Zm-23.81,42.5a12.75,12.75,0,0,0-3.6,9.1,9.94,9.94,0,0,0,10.5,10.4,11.24,11.24,0,0,0,8.31-3.4,14.26,14.26,0,0,0,3.5-9.2,10.1,10.1,0,0,0-2.9-7.2,10.57,10.57,0,0,0-7.61-3A11.24,11.24,0,0,0,345.89,566.44Z"/><path class="cls-1" d="M438.4,552.24l-2.8,24.1c-.6,5.3-1.5,11.5-6.5,16.3-5.31,5.1-12.41,5.7-17.51,5.7-4.5,0-12.4-.3-17.4-5.1a16.58,16.58,0,0,1-4.8-12,57.71,57.71,0,0,1,.5-6.3l2.7-22.7H407l-2.6,22.2c-.3,2.8-.5,3.8-.5,4.9a6.38,6.38,0,0,0,1.9,4.9,10,10,0,0,0,12.5-.6c.6-.6,2.3-2.7,2.9-8l2.81-23.4Z"/><path class="cls-1" d="M481.49,566.74a15,15,0,0,0-10-3.8,11.82,11.82,0,0,0-8.7,3.4,13.65,13.65,0,0,0-3.3,8.9,10.54,10.54,0,0,0,3.2,7.9,10.77,10.77,0,0,0,7.8,3,13.53,13.53,0,0,0,9.1-3.6l-1.6,13.2a25.25,25.25,0,0,1-11.8,2.6c-5.9,0-10.9-1.3-15.5-6.2a23,23,0,0,1-6-16.1,25.62,25.62,0,0,1,7-18.2c3.8-3.9,9.7-7.1,18.5-7.1a28.7,28.7,0,0,1,13,2.9Z"/><path class="cls-1" d="M508.39,563.84l-4.1,33h-14.4l4.1-33h-5.2l1.4-11.6h5.2l1.8-14.4h14.4l-1.8,14.4h8.8l-1.4,11.6Z"/><path class="cls-1" d="M540.09,552.24l-5.5,44.6h-14.4l5.5-44.6Zm-5.3-27.4a8.32,8.32,0,1,1-.16,0Z"/><path class="cls-1" d="M593.69,557.64a21.15,21.15,0,0,1,6,15.1,26.73,26.73,0,0,1-7.2,18.3c-6.3,6.4-14,7.3-20.5,7.3-5.7,0-12.9-.8-18.6-6.7a22.46,22.46,0,0,1-6.1-15.7,24.32,24.32,0,0,1,7.2-17.6c4.9-4.8,12.3-7.6,20.5-7.6C582.19,550.74,589.29,553.24,593.69,557.64Zm-12.5,25.3a13.36,13.36,0,0,0,3.7-9.5,10.52,10.52,0,0,0-3-7.7,12.05,12.05,0,0,0-15.8.3,12.85,12.85,0,0,0-4,9.5,11.12,11.12,0,0,0,2.9,7.6,10.31,10.31,0,0,0,7.8,3A12.14,12.14,0,0,0,581.19,582.94Z"/><path class="cls-1" d="M626,552.24l-.7,4.9a21.26,21.26,0,0,1,5.5-4.2,16.8,16.8,0,0,1,8.8-1.9c3.7,0,8.2.5,11.6,3.8s3.8,7.9,3.8,10.6a67.19,67.19,0,0,1-.7,8.5l-2.7,22.9H637.2l2.4-19.3a54.2,54.2,0,0,0,.6-7.2,7.7,7.7,0,0,0-1.8-5.4,7.39,7.39,0,0,0-5.3-1.9,8.65,8.65,0,0,0-6.5,2.4c-2.6,2.7-3.2,7-3.5,9.4l-2.6,22H606.1l5.5-44.6Z"/><path class="cls-1" d="M99.82,627.72H89.45l-.76,6.19h9.6l-.77,6.24h-9.6L86.24,653.5H78.85l4-32h17.76Z"/><path class="cls-1" d="M113.31,621.48,111.2,639a14.47,14.47,0,0,0-.24,2.79,5.62,5.62,0,0,0,1.39,4.13,6,6,0,0,0,4.22,1.44,6.45,6.45,0,0,0,4.71-1.59c1.58-1.58,1.92-4.27,2.16-6.09l2.21-18.15H133l-2.3,18.63c-.48,3.84-.92,7.72-3.8,10.65-3.21,3.32-7.87,3.46-10.51,3.46-3.17,0-7.2-.39-10.13-3.31a9.73,9.73,0,0,1-2.83-7.4c0-1.44.24-3.74.38-5l2.07-17Z"/><path class="cls-1" d="M150.51,627.72l-3.17,25.78H140l3.17-25.78h-7l.76-6.24h21.32l-.77,6.24Z"/><path class="cls-1" d="M169.47,621.48,167.36,639a14.47,14.47,0,0,0-.24,2.79,5.62,5.62,0,0,0,1.39,4.13,6,6,0,0,0,4.22,1.44,6.45,6.45,0,0,0,4.71-1.59c1.58-1.58,1.92-4.27,2.16-6.09l2.21-18.15h7.39l-2.31,18.63c-.47,3.84-.91,7.72-3.79,10.65-3.21,3.32-7.87,3.46-10.51,3.46-3.17,0-7.2-.39-10.13-3.31a9.72,9.72,0,0,1-2.83-7.4c0-1.44.24-3.74.38-5l2.07-17Z"/><path class="cls-1" d="M206.24,621.48c3.07,0,6.09.29,8.49,2.88a9.11,9.11,0,0,1,2.31,6.53,9.72,9.72,0,0,1-2.64,7,10.37,10.37,0,0,1-5.09,2.59l8.26,13h-8.64l-7.73-12.63-1.54,12.63h-7.39l3.94-32ZM201.77,636h1.83a7.17,7.17,0,0,0,4.32-1.16,4.45,4.45,0,0,0,1.63-3.74A3.43,3.43,0,0,0,208,628a7.49,7.49,0,0,0-4-.77h-1.1Z"/><path class="cls-1" d="M242.24,627.72H231.77l-.77,6.19h10.09l-.77,6.24H230.24l-.87,7.11H240l-.77,6.24H221.4l3.94-32H243Z"/><path class="cls-1" d="M249.44,621.48h10.22c2.16,0,5,.24,7.06,2.21a7.49,7.49,0,0,1,2.06,5.47,8.05,8.05,0,0,1-1.49,5,6.46,6.46,0,0,1-3.36,2.45,8,8,0,0,1,3.65,1.92,6.55,6.55,0,0,1,2.07,5.09,9.4,9.4,0,0,1-2.6,6.86c-2.54,2.55-6.28,3-9.64,3H245.5Zm4.17,26.26h2.69c1.39,0,3.65-.15,4.8-1.2a4,4,0,0,0,1.15-3.07,3.37,3.37,0,0,0-.86-2.4c-1.06-1.06-3.26-1.11-3.94-1.11h-2.88Zm1.64-13.25h1.48a5.92,5.92,0,0,0,4.08-1.2,4.1,4.1,0,0,0,1.11-2.88,3,3,0,0,0-1-2.4,5.24,5.24,0,0,0-3.27-.77h-1.53Z"/><path class="cls-1" d="M293.84,647.45h-12.1l-3,6h-8l16.89-32h6.82l8.59,32h-7.58Zm-1.35-5.66L289.9,630.5l-5.38,11.29Z"/><path class="cls-1" d="M326,629.3a8,8,0,0,0-5.37-2.3,5,5,0,0,0-3,.82,3,3,0,0,0-1.1,2.3,2.61,2.61,0,0,0,1.1,2.16,13.24,13.24,0,0,0,3.12,1.68l1.88.87a11.09,11.09,0,0,1,4.22,3.07,7.37,7.37,0,0,1,1.63,5,11.72,11.72,0,0,1-3.21,8.21c-2.6,2.54-5.91,3.12-9.17,3.12a12.45,12.45,0,0,1-6.39-1.44,17.81,17.81,0,0,1-4.27-3.41l4.13-5.28a11.2,11.2,0,0,0,2.69,2.54A7.17,7.17,0,0,0,316,647.7a6.64,6.64,0,0,0,3.55-1,3.71,3.71,0,0,0,1.35-3,3,3,0,0,0-.91-2.21,7.58,7.58,0,0,0-2.55-1.44l-1.87-.77a14.14,14.14,0,0,1-4.51-2.83A7.41,7.41,0,0,1,309,631a10.06,10.06,0,0,1,2.87-7.25c2.6-2.54,5.91-3,8.65-3a14.17,14.17,0,0,1,9.26,3.17Z"/><path class="cls-1" d="M351.44,629.3a8,8,0,0,0-5.38-2.3,4.91,4.91,0,0,0-3,.82,3,3,0,0,0-1.11,2.3,2.61,2.61,0,0,0,1.11,2.16,13.24,13.24,0,0,0,3.12,1.68l1.87.87a11.09,11.09,0,0,1,4.22,3.07,7.37,7.37,0,0,1,1.63,5,11.72,11.72,0,0,1-3.21,8.21c-2.59,2.54-5.91,3.12-9.17,3.12a12.45,12.45,0,0,1-6.39-1.44,17.81,17.81,0,0,1-4.27-3.41L335,644.1a11.2,11.2,0,0,0,2.69,2.54,7.17,7.17,0,0,0,3.74,1.06,6.68,6.68,0,0,0,3.56-1,3.73,3.73,0,0,0,1.34-3,3,3,0,0,0-.91-2.21,7.58,7.58,0,0,0-2.55-1.44l-1.87-.77a14.14,14.14,0,0,1-4.51-2.83,7.39,7.39,0,0,1-2.11-5.43,10,10,0,0,1,2.88-7.25c2.59-2.54,5.9-3,8.64-3a14.17,14.17,0,0,1,9.26,3.17Z"/><path class="cls-1" d="M8.1,1050.14c.7-5.3,3.1-11.3,6.9-15.1,5.4-5.5,12.6-6.3,17.6-6.3,10.1,0,15.1,3.8,17,5.6a17.51,17.51,0,0,1,5.2,13.1,15.12,15.12,0,0,1-2.9,9.5,14.37,14.37,0,0,1-6.2,4.6,15.24,15.24,0,0,1,8,13.7,23.76,23.76,0,0,1-6.3,16.6c-5.3,5.5-11.6,6.6-18.6,6.6-6.4,0-13.6-1.1-19.2-6.7A26.68,26.68,0,0,1,2.4,1075H17.8a14.66,14.66,0,0,0,2.8,7.3,9.5,9.5,0,0,0,7.5,2.9,9.55,9.55,0,0,0,7.4-2.8,9.91,9.91,0,0,0,2.4-6.6,8.14,8.14,0,0,0-2.6-6.2c-2.3-2-5.5-2-7.7-2h-.9l1.4-10.6h1c2.5,0,5.5-.3,7.6-1.8a8,8,0,0,0,3-6.4,6.49,6.49,0,0,0-2.4-5.3,8.35,8.35,0,0,0-5.6-1.8,8.3,8.3,0,0,0-6,2.3,11.82,11.82,0,0,0-2.8,6.1Z"/><path class="cls-1" d="M71.1,1080.24a9.1,9.1,0,1,1-9.1,9.1h0a9,9,0,0,1,8.9-9.1Z"/><path class="cls-1" d="M144.7,1043.14l-6.6,53.7H122.7l6.6-53.7H114.8l1.6-13h44.4l-1.6,13Z"/><path class="cls-1" d="M179.1,1023.94l-4.2,33.2a21.65,21.65,0,0,1,5.5-4.2c3.2-1.7,5.8-1.9,9.1-1.9,3.5,0,7.9.5,11.3,3.8s3.8,7.9,3.8,10.6a67.19,67.19,0,0,1-.7,8.5l-2.7,22.9H186.8l2.4-19.3a54.2,54.2,0,0,0,.6-7.2,7.7,7.7,0,0,0-1.8-5.4,7.28,7.28,0,0,0-5.1-1.9c-2.6,0-4.8.5-6.7,2.4-2.6,2.6-3.2,7-3.5,9.4l-2.6,22H155.7l9-72.9Z"/><path class="cls-1" d="M233.2,1052.24l-5.5,44.6H213.3l5.5-44.6Zm-5.3-27.4a8.32,8.32,0,1,1-.16,0Z"/><path class="cls-1" d="M259.9,1052.24l-.7,4.9a21.26,21.26,0,0,1,5.5-4.2,16.8,16.8,0,0,1,8.8-1.9c3.7,0,8.2.5,11.6,3.8s3.8,7.9,3.8,10.6a67.19,67.19,0,0,1-.7,8.5l-2.7,22.9H271.1l2.4-19.3a54.2,54.2,0,0,0,.6-7.2,7.7,7.7,0,0,0-1.8-5.4,7.39,7.39,0,0,0-5.3-1.9,8.65,8.65,0,0,0-6.5,2.4c-2.6,2.7-3.2,7-3.5,9.4l-2.6,22H240l5.5-44.6Z"/><path class="cls-1" d="M320.6,1023.94l-5.5,44.7,16.4-16.4h19.2l-21.9,20.5,20.2,24.1H330.5l-16.41-19.6-2.59,19.6H297.09l9.1-72.9Z"/><path class="cls-1" d="M374.09,1052.24l-5.5,44.6h-14.4l5.5-44.6Zm-5.3-27.4a8.33,8.33,0,1,1-.14,0Z"/><path class="cls-1" d="M400.79,1052.24l-.7,4.9a21.26,21.26,0,0,1,5.5-4.2,16.8,16.8,0,0,1,8.8-1.9c3.7,0,8.2.5,11.61,3.8s3.79,7.9,3.79,10.6a67.17,67.17,0,0,1-.69,8.5l-2.7,22.9H412l2.4-19.3a54.2,54.2,0,0,0,.6-7.2,7.7,7.7,0,0,0-1.8-5.4,7.39,7.39,0,0,0-5.3-1.9,8.65,8.65,0,0,0-6.5,2.4c-2.6,2.7-3.2,7-3.5,9.4l-2.6,22H380.9l5.5-44.6Z"/><path class="cls-1" d="M476.49,1052.24h14.4l-5.6,44.8c-.7,5.2-2,11.5-6.7,16.2-5.9,5.9-14.3,6.5-19.5,6.5-6,0-12.4-1-17.3-5.6a21.64,21.64,0,0,1-6.2-12.2H451a8.8,8.8,0,0,0,2.7,4.4,11.43,11.43,0,0,0,14.2-1.5c1.8-2.1,2.7-5.6,3-8.3l.6-4.8c-4,5.7-9.7,6.3-13.7,6.3-4.5,0-9.2-.5-13.8-5.3-3.1-3.2-6-8.3-6-16.2s2.7-14.6,7.3-19.3a21.21,21.21,0,0,1,16-6.5,17.91,17.91,0,0,1,14.7,6.9Zm-20.4,13.9c-2,2-3.3,5.7-3.3,9a9.78,9.78,0,0,0,9,10.48,9,9,0,0,0,1.16,0,11.53,11.53,0,0,0,7.9-2.9c2.2-2.1,3.7-6.2,3.7-9.5a10.54,10.54,0,0,0-2.9-7.3c-1.4-1.4-3.7-2.7-7.7-2.7A10.78,10.78,0,0,0,456.09,1066.14Z"/><path class="cls-1" d="M565.49,1043.14h-21.6l-1.6,12.9h20l-1.6,13h-20l-3.5,27.8h-15.4l8.3-66.7h37Z"/><path class="cls-1" d="M604.59,1052.24H619l-5.5,44.6H599.1l1.1-5.1a19.39,19.39,0,0,1-6.3,5,21.26,21.26,0,0,1-8.3,1.6c-5.5,0-9.9-1.4-13.8-5.5-3.3-3.5-6-8.7-6-16.4,0-8.2,2.9-14.8,7.2-19.2,4.6-4.7,10.2-6.5,16.4-6.5a20,20,0,0,1,8.7,1.7,16.06,16.06,0,0,1,6.1,5.2Zm-20.6,14.2a12.64,12.64,0,0,0-3.4,8.9,10.69,10.69,0,0,0,2.9,7.6,10,10,0,0,0,7.6,3,11.63,11.63,0,0,0,8.2-3,13.63,13.63,0,0,0,3.8-9.6,10.3,10.3,0,0,0-3.1-7.7c-1.3-1.2-3.6-2.5-7.5-2.5a11.3,11.3,0,0,0-8.49,3.3Z"/><path class="cls-1" d="M662.39,1066.74a15,15,0,0,0-10-3.8,11.82,11.82,0,0,0-8.7,3.4,13.65,13.65,0,0,0-3.3,8.9,10.54,10.54,0,0,0,3.2,7.9,10.77,10.77,0,0,0,7.8,3,13.53,13.53,0,0,0,9.1-3.6l-1.6,13.2a25.25,25.25,0,0,1-11.8,2.6c-5.9,0-10.9-1.3-15.5-6.2a23,23,0,0,1-6-16.1,25.62,25.62,0,0,1,7-18.2c3.8-3.9,9.7-7.1,18.5-7.1a28.7,28.7,0,0,1,13,2.9Z"/><path class="cls-1" d="M683.09,1077.34a11.82,11.82,0,0,0,1.8,6.7,9.65,9.65,0,0,0,15.7-2.2l14.5,1.2a27,27,0,0,1-8.1,11.1c-5.1,3.8-11.2,4.2-15.3,4.2-5.5,0-12.1-.7-17.4-6-4.3-4.3-5.6-9.6-5.6-15.6,0-9.8,4-16.3,7.7-19.8,5.4-5.1,12.1-6.2,17.7-6.2,7.6,0,13.3,2.4,16.7,5.7,6,5.9,6.2,15.6,5.6,20.9Zm19.5-8.8a9,9,0,0,0-2.9-5.8,10,10,0,0,0-5.9-1.8,9.21,9.21,0,0,0-6.8,2.7,10.39,10.39,0,0,0-2.5,4.9Z"/><path class="cls-1" d="M790.59,1043.14h-21.8l-1.6,12.9h21l-1.6,13h-21l-1.8,14.8H786l-1.6,13H747.18l8.21-66.7h36.8Z"/><path class="cls-1" d="M801.49,1052.24h14.4l-.8,5.2a14.68,14.68,0,0,1,5.3-4.6,17.51,17.51,0,0,1,7.6-1.7,14.23,14.23,0,0,1,8.1,2.2,12.12,12.12,0,0,1,4.6,6,19.54,19.54,0,0,1,5.9-5.8,17.87,17.87,0,0,1,9.5-2.4c3.2,0,8.1.5,11.9,4.1,5.4,5.2,4.4,12,3.7,17.6l-2.9,24h-14.4l2.6-21.5c.4-3.6.5-4.7.5-5.5a7.13,7.13,0,0,0-1.8-5.1,6.26,6.26,0,0,0-4.3-1.6,7.7,7.7,0,0,0-5.5,2.2c-1.5,1.5-3,4.3-3.7,10l-2.6,21.5h-14.4l2.7-22a44.54,44.54,0,0,0,.4-4.9c0-1.4-.1-3.6-1.6-5.1a6.88,6.88,0,0,0-4.6-1.7,7.83,7.83,0,0,0-5.5,2.3c-2.7,2.8-3.2,6.9-3.6,10.1l-2.6,21.3H796Z"/><path class="cls-1" d="M927.09,1057.64a21.15,21.15,0,0,1,6,15.1,26.73,26.73,0,0,1-7.2,18.3c-6.3,6.4-14,7.3-20.5,7.3-5.7,0-12.91-.8-18.61-6.7a22.46,22.46,0,0,1-6.1-15.7,24.32,24.32,0,0,1,7.2-17.6c4.91-4.8,12.31-7.6,20.51-7.6C915.59,1050.74,922.69,1053.24,927.09,1057.64Zm-12.5,25.3a13.36,13.36,0,0,0,3.7-9.5,10.52,10.52,0,0,0-3-7.7,12.06,12.06,0,0,0-15.8.3,12.85,12.85,0,0,0-4,9.5,11.11,11.11,0,0,0,2.9,7.6,10.39,10.39,0,0,0,7.81,3,12.16,12.16,0,0,0,8.39-3.2Z"/><path class="cls-1" d="M960.28,1052.24l-8.5,67.5h-14.4l8.5-67.5Zm-5.3-27.4a8.32,8.32,0,1,1-.16,0H955Z"/><path class="cls-1" d="M987.88,1052.24l-5.5,44.6H968l5.5-44.6Zm-5.3-27.4a8.32,8.32,0,1,1-.16,0Z"/><path class="cls-1" d="M88.69,1133.48h12.77l1.48-12h7.4l-3.94,32H99l1.68-13.78H87.92l-1.68,13.78H78.85l3.93-32h7.39Z"/><path class="cls-1" d="M124.88,1121.48l-3.94,32h-7.39l3.94-32Z"/><path class="cls-1" d="M142.83,1121.48c2.26,0,5.71.1,8.3,2.69a9.21,9.21,0,0,1,2.6,6.86c0,3.55-1.2,6.63-3.12,8.4-1.44,1.35-4.18,2.84-9.51,2.84h-4.22l-1.39,11.23h-7.4l3.94-32Zm-5.23,14.74h2.64c1.58,0,3.41-.15,4.65-1.39a4.54,4.54,0,0,0,1.25-3.32,3.65,3.65,0,0,0-1-2.78c-1.16-1.1-3.08-1.2-4.18-1.2H138.7Z"/><path class="cls-1" d="M165.39,1133.48h12.77l1.49-12H187l-3.94,32h-7.39l1.68-13.78H164.62l-1.68,13.78h-7.39l3.93-32h7.4Z"/><path class="cls-1" d="M221,1124.94a15.63,15.63,0,0,1,4.52,11.37,18.8,18.8,0,0,1-5,13c-4,4.13-9.07,5-13.25,5-4,0-8.4-.72-12.19-4.56a15.75,15.75,0,0,1-4.51-11.19,17.43,17.43,0,0,1,5.28-12.86,18.5,18.5,0,0,1,13.15-4.85C215.17,1120.76,218.86,1122.92,221,1124.94Zm-19.87,5.71a10.78,10.78,0,0,0-2.93,7.34,9.93,9.93,0,0,0,16.76,6.68,11.32,11.32,0,0,0,3-7.88,9,9,0,0,0-2.54-6.72,9.2,9.2,0,0,0-6.63-2.49,10,10,0,0,0-7.69,3.07Z"/><path class="cls-1" d="M243.72,1121.48c2.26,0,5.72.1,8.31,2.69a9.24,9.24,0,0,1,2.59,6.86c0,3.55-1.2,6.63-3.12,8.4-1.44,1.35-4.17,2.84-9.5,2.84h-4.23l-1.39,11.23H229l3.93-32Zm-5.23,14.74h2.64c1.59,0,3.41-.15,4.66-1.39a4.54,4.54,0,0,0,1.25-3.32,3.65,3.65,0,0,0-1.06-2.78c-1.15-1.1-3.07-1.2-4.18-1.2h-2.2Z"/><path class="cls-1" d="M48.9,1572.24h8l-1.5,12.2h-8l-1.5,12.4H31.1l1.5-12.4H0l1.1-8.8,35-45.5h18Zm-14.8,0,3.1-25.5-19.5,25.5Z"/><path class="cls-1" d="M71.1,1580.24a9.1,9.1,0,1,1-9.1,9.1h0a9,9,0,0,1,8.9-9.1Z"/><path class="cls-1" d="M143.8,1530.14c6.4,0,12.7.6,17.7,6,2.3,2.4,4.8,6.7,4.8,13.6,0,6.3-2.2,11.3-5.5,14.6a21.56,21.56,0,0,1-10.6,5.4l17.2,27.1h-18l-16.1-26.3-3.2,26.3H114.7l8.2-66.7Zm-9.3,30.3h3.8c2.5,0,6.3-.3,9-2.4s3.4-5,3.4-7.8a7.19,7.19,0,0,0-3.2-6.5c-2-1.3-4.9-1.6-8.4-1.6h-2.3Z"/><path class="cls-1" d="M188.8,1577.34a11.82,11.82,0,0,0,1.8,6.7,9.65,9.65,0,0,0,15.7-2.2l14.5,1.2a27,27,0,0,1-8.1,11.1c-5.1,3.8-11.2,4.2-15.3,4.2-5.5,0-12.1-.7-17.4-6-4.3-4.3-5.6-9.6-5.6-15.6,0-9.8,4-16.3,7.7-19.8,5.4-5.1,12.1-6.2,17.7-6.2,7.6,0,13.3,2.4,16.7,5.7,6,5.9,6.2,15.6,5.6,20.9Zm19.5-8.8a9,9,0,0,0-2.9-5.8,10,10,0,0,0-5.9-1.8,9.21,9.21,0,0,0-6.8,2.7,10.39,10.39,0,0,0-2.5,4.9Z"/><path class="cls-1" d="M247.9,1557.24a17.3,17.3,0,0,1,5.5-4.6,19.11,19.11,0,0,1,8.7-1.9c5.4,0,9.8,1.4,13.5,4.8,5.3,4.9,6.4,11.4,6.4,16.3,0,8.2-2.6,15.4-7.3,20.2s-10.2,6.3-16.5,6.3a19.64,19.64,0,0,1-9.4-2.1,17.7,17.7,0,0,1-5.4-4.9l-.4,5.5H228.6l9.1-72.9h14.4Zm.8,9a13,13,0,0,0-3.7,9.2c0,4.3,1.8,6.7,2.9,7.7a10.91,10.91,0,0,0,7.3,2.8,12.14,12.14,0,0,0,8.2-3.3,13.57,13.57,0,0,0,3.8-9.3,10.27,10.27,0,0,0-3.1-7.5,9.69,9.69,0,0,0-7.1-2.7A11.4,11.4,0,0,0,248.7,1566.24Z"/><path class="cls-1" d="M303.2,1577.34a11.82,11.82,0,0,0,1.8,6.7,9.65,9.65,0,0,0,15.7-2.2l14.5,1.2a27,27,0,0,1-8.1,11.1c-5.1,3.8-11.2,4.2-15.3,4.2-5.5,0-12.1-.7-17.4-6-4.3-4.3-5.61-9.6-5.61-15.6,0-9.8,4-16.3,7.71-19.8,5.4-5.1,12.1-6.2,17.7-6.2,7.6,0,13.3,2.4,16.7,5.7,6,5.9,6.2,15.6,5.6,20.9Zm19.5-8.8a9,9,0,0,0-2.9-5.8,10,10,0,0,0-5.9-1.8,9.21,9.21,0,0,0-6.8,2.7,10.39,10.39,0,0,0-2.5,4.9Z"/><path class="cls-1" d="M366.4,1523.94l-9,72.9H343l9-72.9Z"/><path class="cls-1" d="M392.79,1523.94l-9,72.9h-14.4l9-72.9Z"/><path class="cls-1" d="M416.19,1552.24l-5.5,44.6h-14.4l5.5-44.6Zm-5.3-27.4a8.32,8.32,0,1,1-.16,0Z"/><path class="cls-1" d="M469.79,1557.64a21.07,21.07,0,0,1,6,15.1,26.73,26.73,0,0,1-7.2,18.3c-6.3,6.4-14,7.3-20.5,7.3-5.7,0-12.9-.8-18.6-6.7a22.46,22.46,0,0,1-6.1-15.7,24.32,24.32,0,0,1,7.2-17.6c4.9-4.8,12.3-7.6,20.5-7.6C458.29,1550.74,465.39,1553.24,469.79,1557.64Zm-12.5,25.3a13.36,13.36,0,0,0,3.7-9.5,10.52,10.52,0,0,0-3-7.7,12.06,12.06,0,0,0-15.8.3,12.85,12.85,0,0,0-4,9.5,11.11,11.11,0,0,0,2.9,7.6,10.31,10.31,0,0,0,7.8,3,12.14,12.14,0,0,0,8.4-3.2Z"/><path class="cls-1" d="M502.09,1552.24l-.7,4.9a21.26,21.26,0,0,1,5.5-4.2,16.8,16.8,0,0,1,8.8-1.9c3.7,0,8.2.5,11.6,3.8s3.8,7.9,3.8,10.6a67.19,67.19,0,0,1-.7,8.5l-2.7,22.9h-14.4l2.4-19.3a54.2,54.2,0,0,0,.6-7.2,7.7,7.7,0,0,0-1.8-5.4,7.39,7.39,0,0,0-5.3-1.9,8.65,8.65,0,0,0-6.5,2.4c-2.6,2.7-3.2,7-3.5,9.4l-2.6,22h-14.4l5.5-44.6Z"/><path class="cls-1" d="M92.14,1621.48c3.32,0,8.64.48,12.24,4.08,2.12,2.11,3.84,5.62,3.84,10.66,0,7.34-3.36,11.33-5,12.86-3.69,3.51-8.73,4.42-14.54,4.42H78.85l3.93-32ZM87,1647.26h2.25c2.16,0,5.57-.15,8.16-2.45a11.19,11.19,0,0,0,3.22-8.4,8.8,8.8,0,0,0-2.31-6.43,9.86,9.86,0,0,0-6.67-2.26H89.41Z"/><path class="cls-1" d="M123,1621.48,120.89,1639a16.25,16.25,0,0,0-.24,2.79,5.62,5.62,0,0,0,1.4,4.13,6,6,0,0,0,4.22,1.44,6.45,6.45,0,0,0,4.71-1.59c1.58-1.58,1.92-4.27,2.16-6.09l2.2-18.15h7.4l-2.31,18.63c-.48,3.84-.91,7.72-3.79,10.65-3.22,3.32-7.87,3.46-10.51,3.46-3.17,0-7.2-.39-10.13-3.31a9.72,9.72,0,0,1-2.83-7.4c0-1.44.24-3.74.38-5l2.06-17Z"/><path class="cls-1" d="M149.74,1621.48H160c2.16,0,5,.24,7.05,2.21a7.41,7.41,0,0,1,2.07,5.47,8.05,8.05,0,0,1-1.49,5,6.52,6.52,0,0,1-3.36,2.45,8,8,0,0,1,3.65,1.92,6.54,6.54,0,0,1,2.06,5.09,9.39,9.39,0,0,1-2.59,6.86c-2.54,2.55-6.29,3-9.65,3h-11.9Zm4.18,26.26h2.69c1.39,0,3.64-.15,4.8-1.2a4,4,0,0,0,1.15-3.07,3.37,3.37,0,0,0-.86-2.4c-1.06-1.06-3.27-1.11-3.94-1.11h-2.88Zm1.63-13.25H157a5.92,5.92,0,0,0,4.08-1.2,4,4,0,0,0,1.1-2.88,3,3,0,0,0-1-2.4,5.19,5.19,0,0,0-3.26-.77h-1.54Z"/><path class="cls-1" d="M193.86,1629.3a8,8,0,0,0-5.38-2.3,5,5,0,0,0-3,.82,3,3,0,0,0-1.1,2.3,2.61,2.61,0,0,0,1.1,2.16,13.24,13.24,0,0,0,3.12,1.68l1.88.87a11.09,11.09,0,0,1,4.22,3.07,7.37,7.37,0,0,1,1.63,5,11.72,11.72,0,0,1-3.21,8.21c-2.59,2.54-5.91,3.12-9.17,3.12a12.45,12.45,0,0,1-6.39-1.44,17.81,17.81,0,0,1-4.27-3.41l4.13-5.28a11.2,11.2,0,0,0,2.69,2.54,7.17,7.17,0,0,0,3.74,1.06,6.64,6.64,0,0,0,3.55-1,3.71,3.71,0,0,0,1.35-3,3,3,0,0,0-.91-2.21,7.58,7.58,0,0,0-2.55-1.44l-1.87-.77a14.14,14.14,0,0,1-4.51-2.83,7.39,7.39,0,0,1-2.11-5.43,10,10,0,0,1,2.88-7.25c2.59-2.54,5.9-3,8.64-3a14.23,14.23,0,0,1,9.26,3.17Z"/><path class="cls-1" d="M215.12,1627.72,212,1653.5h-7.39l3.17-25.78h-7l.77-6.24h21.32l-.77,6.24Z"/><path class="cls-1" d="M243.63,1627.72H233.17l-.77,6.19h10.08l-.77,6.24H231.63l-.87,7.11h10.66l-.77,6.24H222.8l3.93-32H244.4Z"/><path class="cls-1" d="M261.63,1621.48c2.25,0,5.71.1,8.3,2.69a9.29,9.29,0,0,1,2.6,6.86c0,3.55-1.2,6.63-3.12,8.4-1.44,1.35-4.18,2.84-9.51,2.84h-4.22l-1.4,11.23h-7.39l3.94-32Zm-5.23,14.74H259c1.58,0,3.41-.15,4.65-1.39a4.54,4.54,0,0,0,1.25-3.32,3.64,3.64,0,0,0-1.06-2.78c-1.15-1.1-3.07-1.2-4.17-1.2H257.5Z"/><path class="cls-2" d="M732.43,283.05q-22.73-22.43-22.73-62.15V85.56q0-40.12,22.83-62.34T798.77,1q43.61,0,66.34,22.11t22.73,62.45V220.9q0,40.14-22.83,62.35t-66.24,22.22Q755.15,305.47,732.43,283.05Zm91.32-43.21q8-11.57,8-33.27V99.9q0-21.7-8-33.28t-25-11.56q-17,0-25,11.56t-8,33.28V206.57q0,21.7,8,33.27t25,11.57Q815.78,251.41,823.75,239.84Z"/><path class="cls-2" d="M1023.13,302.4H967V70.62L930.78,84.33V24.75L975.21,4.69h47.92Z"/><path class="cls-2" d="M732.43,770.55q-22.73-22.42-22.73-62.15V573.06q0-40.12,22.83-62.34t66.24-22.22q43.61,0,66.34,22.11t22.73,62.45V708.4q0,40.14-22.83,62.35T798.77,793Q755.15,793,732.43,770.55Zm91.32-43.21q8-11.57,8-33.27V587.4q0-21.71-8-33.28t-25-11.56q-17,0-25,11.56t-8,33.28V694.07q0,21.7,8,33.27t25,11.57q17,0,25-11.57Z"/><path class="cls-2" d="M930.78,739.32,1033,605a76.74,76.74,0,0,0,10.75-18.53,48.16,48.16,0,0,0,3.79-17.71v-.41q0-12.08-7.78-18.63t-22.12-6.55q-13.92,0-22.52,9.11t-10.44,25.9v.21H927.09v-.21q1.85-27.84,13.41-47.91a78.27,78.27,0,0,1,31.23-30.61q19.65-10.55,45.45-10.55,27.86,0,47.61,9.12t30.1,26.51q10.33,17.41,10.34,42v.2a120,120,0,0,1-7.07,40.23,126.05,126.05,0,0,1-19.75,36.14l-73.31,92.55h101.77v54H930.78Z"/><path class="cls-2" d="M732.43,1258.05q-22.73-22.42-22.73-62.15V1060.56q0-40.12,22.83-62.34T798.77,976q43.61,0,66.34,22.11t22.73,62.45V1195.9q0,40.14-22.83,62.35t-66.24,22.22Q755.15,1280.47,732.43,1258.05Zm91.32-43.21q8-11.56,8-33.27V1074.9q0-21.7-8-33.28t-25-11.57q-17,0-25,11.57t-8,33.28v106.67q0,21.71,8,33.27t25,11.57q17,0,25-11.57Z"/><path class="cls-2" d="M972.6,1270.64A79.91,79.91,0,0,1,939,1242q-12.5-18.82-13.72-44.84h58a37.61,37.61,0,0,0,5.42,15.67,28,28,0,0,0,10.75,9.83,32.64,32.64,0,0,0,15.16,3.37q16,0,24.67-8.9T1048,1192v-7q0-17-7.06-26.21t-20.17-9.21H995.53v-54h25.19q10.63,0,16.48-8.09t5.84-22.63v-5.12q0-13.71-6.45-21.19t-18.12-7.47a25.57,25.57,0,0,0-13.82,3.89,31.81,31.81,0,0,0-10.55,11.26A53.46,53.46,0,0,0,988,1064H930.22q2.46-27.23,14.64-47a81.72,81.72,0,0,1,31.84-30q19.65-10.34,43.81-10.34,39.52,0,61.12,20.17t21.6,57.23v9q0,20.68-10.44,36T1063.1,1122q21.51,4.9,33.28,22.52t11.77,44.84v9q0,26-10.24,44.43a66.87,66.87,0,0,1-29.89,28q-19.66,9.63-47.3,9.63Q993.69,1280.47,972.6,1270.64Z"/><path class="cls-2" d="M792.45,1496.53q-43.41,0-66.24,22.22t-22.83,62.34v135.35q0,39.72,22.73,62.14T792.45,1801q43.41,0,66.24-22.22t22.83-62.34V1581.09q0-40.32-22.73-62.44T792.45,1496.53Zm33,205.57q0,21.7-8,33.28t-25,11.57q-17,0-25-11.57t-8-33.28V1595.43q0-21.71,8-33.27t25-11.57q17,0,25,11.57t8,33.27Z"/><polygon class="cls-2" points="1122.2 1698.21 1098.86 1698.21 1098.86 1622.87 1042.76 1622.87 1042.76 1698.21 988.5 1698.21 1077.77 1500.42 1014.3 1500.42 922.57 1700.67 922.57 1752.27 1042.76 1752.27 1042.76 1798.13 1098.86 1798.13 1098.86 1752.27 1122.2 1752.27 1122.2 1698.21"/><polygon class="cls-3" points="34.7 226 34.7 207.25 53.45 207.25 34.7 226"/><polygon class="cls-4" points="72.2 226 72.2 207.25 90.95 207.25 72.2 226"/><polygon class="cls-4" points="109.7 226 109.7 207.25 128.45 207.25 109.7 226"/><polygon class="cls-4" points="147.2 226 147.2 207.25 165.95 207.25 147.2 226"/><polygon class="cls-3" points="34.7 713.5 34.7 694.75 53.45 694.75 34.7 713.5"/><polygon class="cls-3" points="72.2 713.5 72.2 694.75 90.95 694.75 72.2 713.5"/><polygon class="cls-4" points="109.7 713.5 109.7 694.75 128.45 694.75 109.7 713.5"/><polygon class="cls-4" points="147.2 713.5 147.2 694.75 165.95 694.75 147.2 713.5"/><polygon class="cls-3" points="34.7 1219.75 34.7 1201 53.45 1201 34.7 1219.75"/><polygon class="cls-3" points="72.2 1219.75 72.2 1201 90.95 1201 72.2 1219.75"/><polygon class="cls-3" points="109.7 1219.75 109.7 1201 128.45 1201 109.7 1219.75"/><polygon class="cls-4" points="147.2 1219.75 147.2 1201 165.95 1201 147.2 1219.75"/><polygon class="cls-3" points="34.7 1707.25 34.7 1688.5 53.45 1688.5 34.7 1707.25"/><polygon class="cls-3" points="72.2 1707.25 72.2 1688.5 90.95 1688.5 72.2 1707.25"/><polygon class="cls-3" points="109.7 1707.25 109.7 1688.5 128.45 1688.5 109.7 1707.25"/><polygon class="cls-3" points="147.2 1707.25 147.2 1688.5 165.95 1688.5 147.2 1707.25"/><path class="cls-1" d="M494.11,226h-21.5l12.72-13.44c2.25-2.4,3.5-3.7,4.46-4.85a8.49,8.49,0,0,0,2.31-5.28,4.45,4.45,0,0,0-1.54-3.46,6.19,6.19,0,0,0-7.63.24,8,8,0,0,0-2,4.37h-4.71a13.67,13.67,0,0,1,3.08-7,10,10,0,0,1,7.82-3.12,10.43,10.43,0,0,1,7.11,2.36,7.8,7.8,0,0,1,2.68,6.09,11.61,11.61,0,0,1-2.64,7.15c-1.34,1.78-4.7,5.33-5.85,6.53l-5.72,5.91h12Z"/><path class="cls-1" d="M500.32,221.82a3.17,3.17,0,0,1,2.35-1,2.51,2.51,0,0,1,1.87.72,2.56,2.56,0,0,1,.77,1.92,3.22,3.22,0,0,1-1,2.26,3.14,3.14,0,0,1-2.21.86,2.75,2.75,0,0,1-1.92-.67,2.6,2.6,0,0,1-.76-1.92A3.36,3.36,0,0,1,500.32,221.82Zm1.92-15.6a3.17,3.17,0,0,1,2.35-1,2.51,2.51,0,0,1,1.87.72,2.56,2.56,0,0,1,.77,1.92,3.22,3.22,0,0,1-1,2.26A3.14,3.14,0,0,1,504,211a2.75,2.75,0,0,1-1.92-.67,2.6,2.6,0,0,1-.76-1.92,3.36,3.36,0,0,1,.9-2.17Z"/><path class="cls-1" d="M530.5,226H509l12.72-13.44c2.26-2.4,3.5-3.7,4.46-4.85a8.49,8.49,0,0,0,2.31-5.28A4.4,4.4,0,0,0,527,199a6.19,6.19,0,0,0-7.63.24,8,8,0,0,0-2,4.37h-4.7a13.58,13.58,0,0,1,3.07-7,10,10,0,0,1,7.82-3.12,10.43,10.43,0,0,1,7.11,2.36,7.76,7.76,0,0,1,2.69,6.09,11.74,11.74,0,0,1-2.64,7.15c-1.35,1.78-4.71,5.33-5.86,6.53l-5.71,5.91h12Z"/><path class="cls-1" d="M554,198.49H538.39L539,194h23.82L540,227.1l-3.64-2.4Z"/><path class="cls-1" d="M474.91,711.05c-2.64-3.12-3-7.34-3-9.84,0-5,1.2-12.48,5.85-17a10.29,10.29,0,0,1,7.73-3.22,8.21,8.21,0,0,1,5.95,2.36c3.17,3,3.6,7.39,3.6,10.32,0,8.4-2.25,13.68-5.66,17.13a9.91,9.91,0,0,1-7.73,3.27A7.9,7.9,0,0,1,474.91,711.05Zm6.1-24c-2.69,2.74-4.28,8.79-4.28,13.83,0,2.35.24,5.66,2.26,7.68a3.71,3.71,0,0,0,2.93,1.15,5.11,5.11,0,0,0,3.94-1.68c3.16-3.22,4.32-9.7,4.32-13.73,0-1.92-.2-6-2.36-7.92a4,4,0,0,0-2.88-1.06A5.21,5.21,0,0,0,481,687Z"/><path class="cls-1" d="M498.38,709.32a3.17,3.17,0,0,1,2.35-1,2.53,2.53,0,0,1,1.88.72,2.6,2.6,0,0,1,.76,1.92,3.18,3.18,0,0,1-1,2.26,3.14,3.14,0,0,1-2.2.86,2.75,2.75,0,0,1-1.92-.67,2.56,2.56,0,0,1-.77-1.92A3.36,3.36,0,0,1,498.38,709.32Zm1.92-15.6a3.17,3.17,0,0,1,2.35-1,2.53,2.53,0,0,1,1.88.72,2.6,2.6,0,0,1,.76,1.92,3.18,3.18,0,0,1-1,2.26,3.14,3.14,0,0,1-2.2.86,2.75,2.75,0,0,1-1.92-.67,2.56,2.56,0,0,1-.77-1.92,3.36,3.36,0,0,1,.9-2.17Z"/><path class="cls-1" d="M527.59,702.94h3.46l-.53,4.51h-3.46l-.77,6h-4.7l.77-6H506.47l24-28.32Zm-4.7,0,1.2-9.94-8.26,9.94Z"/><path class="cls-1" d="M555.05,702.94h3.45l-.53,4.51h-3.45l-.77,6h-4.7l.76-6H533.92L558,679.13Zm-4.71,0,1.2-9.94-8.25,9.94Z"/><path class="cls-1" d="M494.36,1219.75h-21.5l12.72-13.44c2.25-2.4,3.5-3.7,4.46-4.85a8.49,8.49,0,0,0,2.31-5.28,4.45,4.45,0,0,0-1.54-3.46,6.19,6.19,0,0,0-7.63.24,8,8,0,0,0-2,4.37H476.5a13.67,13.67,0,0,1,3.08-7,10,10,0,0,1,7.82-3.12,10.43,10.43,0,0,1,7.11,2.36,7.8,7.8,0,0,1,2.68,6.09,11.61,11.61,0,0,1-2.64,7.15c-1.34,1.78-4.7,5.33-5.85,6.53l-5.72,5.91h12Z"/><path class="cls-1" d="M500.57,1215.57a3.17,3.17,0,0,1,2.35-1,2.51,2.51,0,0,1,1.87.72,2.56,2.56,0,0,1,.77,1.92,3.18,3.18,0,0,1-1,2.26,3.14,3.14,0,0,1-2.21.86,2.75,2.75,0,0,1-1.92-.67,2.6,2.6,0,0,1-.76-1.92A3.36,3.36,0,0,1,500.57,1215.57Zm1.92-15.6a3.17,3.17,0,0,1,2.35-1,2.51,2.51,0,0,1,1.87.72,2.56,2.56,0,0,1,.77,1.92,3.18,3.18,0,0,1-1,2.26,3.14,3.14,0,0,1-2.21.86,2.75,2.75,0,0,1-1.92-.67,2.6,2.6,0,0,1-.76-1.92,3.29,3.29,0,0,1,.9-2.14Z"/><path class="cls-1" d="M533.53,1192.24h-9.89l-2.26,5.52c.48,0,1-.09,1.44-.09a9.39,9.39,0,0,1,6.63,2.59,10,10,0,0,1,2.73,7.35c0,4.65-1.72,7.68-3.45,9.4a11.7,11.7,0,0,1-8.88,3.27,12.09,12.09,0,0,1-6.72-1.68,10.72,10.72,0,0,1-3.56-3.65l3.6-2.88a7.88,7.88,0,0,0,2.64,2.83,8,8,0,0,0,4.09,1.06,7.39,7.39,0,0,0,5.32-1.92,7.94,7.94,0,0,0,2.07-5.67,6.5,6.5,0,0,0-2-5.13,6.65,6.65,0,0,0-4.56-1.44,12,12,0,0,0-6.67,2.11l6.82-16.18H534.1Z"/><path class="cls-1" d="M555.57,1219.75h-21.5l12.72-13.44c2.26-2.4,3.5-3.7,4.46-4.85a8.49,8.49,0,0,0,2.31-5.28,4.4,4.4,0,0,0-1.54-3.46,6.19,6.19,0,0,0-7.63.24,8,8,0,0,0-2,4.37h-4.7a13.58,13.58,0,0,1,3.07-7,10,10,0,0,1,7.82-3.12,10.43,10.43,0,0,1,7.11,2.36,7.76,7.76,0,0,1,2.69,6.09,11.74,11.74,0,0,1-2.64,7.15c-1.35,1.78-4.71,5.33-5.86,6.53l-5.71,5.91h12Z"/><path class="cls-1" d="M475.79,1683.39a12,12,0,0,1,2.78-5.9,9.68,9.68,0,0,1,7.35-2.79,9.5,9.5,0,0,1,6.67,2.36,7.79,7.79,0,0,1,2.26,5.85,8.91,8.91,0,0,1-1.3,4.8,6.74,6.74,0,0,1-3.46,2.83,6.15,6.15,0,0,1,2.64,2.36,7,7,0,0,1,1,3.93,11,11,0,0,1-3,8.12c-2.59,2.59-5.57,2.83-8,2.83s-5-.34-7.15-2.55a10.35,10.35,0,0,1-2.64-6.67h4.7a5.43,5.43,0,0,0,1.49,3.6,5.09,5.09,0,0,0,3.74,1.3A5.56,5.56,0,0,0,487,1702a6.59,6.59,0,0,0,1.83-4.9,4.53,4.53,0,0,0-1.88-4,6,6,0,0,0-3.41-.77h-.62l.53-4.13h1a5.87,5.87,0,0,0,4.32-1.3,5.51,5.51,0,0,0,1.34-3.64,4.25,4.25,0,0,0-1.44-3.32,5.63,5.63,0,0,0-6.57.2,5.87,5.87,0,0,0-1.64,3.21Z"/><path class="cls-1" d="M499.08,1703.07a3.17,3.17,0,0,1,2.35-1,2.51,2.51,0,0,1,1.87.72,2.56,2.56,0,0,1,.77,1.92,3.22,3.22,0,0,1-1,2.26,3.18,3.18,0,0,1-2.21.86,2.75,2.75,0,0,1-1.92-.67,2.56,2.56,0,0,1-.77-1.92A3.37,3.37,0,0,1,499.08,1703.07Zm1.92-15.6a3.13,3.13,0,0,1,2.35-1,2.51,2.51,0,0,1,1.87.72,2.56,2.56,0,0,1,.77,1.92,3.22,3.22,0,0,1-1,2.26,3.18,3.18,0,0,1-2.21.86,2.75,2.75,0,0,1-1.92-.67,2.56,2.56,0,0,1-.77-1.92A3.32,3.32,0,0,1,501,1687.47Z"/><path class="cls-1" d="M513.16,1704.8c-2.65-3.12-3-7.34-3-9.84,0-5,1.2-12.48,5.86-17a10.29,10.29,0,0,1,7.73-3.22,8.31,8.31,0,0,1,6,2.36c3.17,3,3.6,7.39,3.6,10.32,0,8.4-2.26,13.68-5.67,17.13a9.89,9.89,0,0,1-7.72,3.27A7.86,7.86,0,0,1,513.16,1704.8Zm6.09-24c-2.69,2.74-4.27,8.79-4.27,13.83,0,2.35.24,5.66,2.26,7.68a3.68,3.68,0,0,0,2.92,1.15,5.08,5.08,0,0,0,3.94-1.68c3.17-3.22,4.32-9.7,4.32-13.73,0-1.92-.19-6-2.35-7.92a4,4,0,0,0-2.88-1.06,5.21,5.21,0,0,0-3.94,1.68Z"/><path class="cls-1" d="M557.59,1676.77l-9.12,9.79a11.2,11.2,0,0,1,1.29-.1,10.22,10.22,0,0,1,7.11,2.88,9.38,9.38,0,0,1,2.59,6.82,11.13,11.13,0,0,1-3.45,8.4,11.68,11.68,0,0,1-8.55,3.22,10.22,10.22,0,0,1-7.58-2.79,10.37,10.37,0,0,1-3.17-7.53,13.15,13.15,0,0,1,2.11-6.72,36.1,36.1,0,0,1,4.8-5.67L554,1674.13Zm-14,15.65a7.17,7.17,0,0,0-2,5,6.15,6.15,0,0,0,1.68,4.27,5.74,5.74,0,0,0,4.32,1.73,7,7,0,0,0,4.85-2,7.38,7.38,0,0,0,2.16-5.33,5.49,5.49,0,0,0-1.82-4.37,6,6,0,0,0-4.13-1.39,6.9,6.9,0,0,0-5,2.09Z"/></g></g></svg>